<svg 
 xmlns="http://www.w3.org/2000/svg"
 xmlns:xlink="http://www.w3.org/1999/xlink"
 width="19px" height="17px" viewBox="0 0 19 17">
<path fill-rule="evenodd"  fill="rgb(192, 192, 192)"
 d="M14.389,8.930 C14.591,8.728 14.591,8.410 14.389,8.207 C14.193,8.005 13.868,8.005 13.673,8.207 L10.007,11.866 L10.007,0.775 C10.007,0.493 9.783,0.262 9.501,0.262 C9.218,0.262 8.987,0.493 8.987,0.775 L8.987,11.866 L5.328,8.207 C5.126,8.005 4.800,8.005 4.605,8.207 C4.403,8.410 4.403,8.728 4.605,8.930 L9.139,13.464 C9.335,13.660 9.660,13.660 9.862,13.464 L14.389,8.930 ZM17.982,11.250 C17.982,10.968 18.206,10.743 18.489,10.743 C18.771,10.743 19.002,10.968 19.002,11.250 L19.002,16.225 C19.002,16.507 18.282,17.000 18.000,17.000 L1.000,17.000 C0.718,17.000 -0.002,16.507 -0.002,16.225 L-0.002,11.250 C-0.002,10.968 0.222,10.743 0.504,10.743 C0.786,10.743 1.018,10.968 1.018,11.250 L1.000,16.000 L18.000,16.000 L17.982,11.250 Z"/>
</svg>