<svg 
 xmlns="http://www.w3.org/2000/svg"
 xmlns:xlink="http://www.w3.org/1999/xlink"
 width="23px" height="24px" viewBox="0 0 23 24">
<path fill-rule="evenodd"  fill="rgb(176, 207, 2)"
 d="M22.475,3.933 L21.985,4.422 L22.475,4.913 C22.623,5.060 22.623,5.300 22.475,5.448 C22.401,5.522 22.304,5.559 22.207,5.559 C22.110,5.559 22.013,5.522 21.939,5.448 L21.449,4.958 L20.959,5.448 C20.885,5.522 20.788,5.559 20.691,5.559 C20.594,5.559 20.497,5.522 20.423,5.448 C20.274,5.300 20.274,5.060 20.423,4.913 L20.913,4.422 L20.423,3.933 C20.274,3.784 20.274,3.545 20.423,3.397 C20.571,3.249 20.810,3.249 20.959,3.397 L21.449,3.887 L21.939,3.397 C22.087,3.249 22.327,3.249 22.475,3.397 C22.623,3.545 22.623,3.784 22.475,3.933 ZM12.435,23.355 C12.405,23.362 12.374,23.366 12.344,23.366 C12.324,23.366 12.303,23.364 12.283,23.361 C12.180,23.364 12.076,23.366 11.972,23.366 C11.866,23.366 11.761,23.364 11.655,23.361 C11.635,23.364 11.614,23.366 11.593,23.366 C11.562,23.366 11.531,23.362 11.500,23.355 C6.284,23.108 2.117,18.789 2.117,13.515 C2.117,8.865 5.358,4.957 9.702,3.929 C9.745,3.203 10.200,2.586 10.835,2.308 L10.835,1.013 C10.835,0.804 11.005,0.634 11.214,0.634 L12.730,0.634 C12.940,0.634 13.109,0.804 13.109,1.013 L13.109,2.308 C13.745,2.586 14.199,3.203 14.243,3.929 C18.586,4.957 21.828,8.864 21.828,13.515 C21.828,18.792 17.655,23.113 12.435,23.355 ZM21.061,13.894 L16.896,13.894 C16.858,15.453 16.589,16.921 16.107,18.262 C17.087,18.562 17.988,18.978 18.807,19.510 C20.137,17.997 20.973,16.040 21.061,13.894 ZM18.274,20.068 C17.524,19.595 16.712,19.228 15.831,18.962 C15.258,20.293 14.463,21.481 13.462,22.486 C15.313,22.180 16.977,21.314 18.274,20.068 ZM12.351,22.487 C13.528,21.472 14.449,20.212 15.089,18.767 C14.240,18.574 13.330,18.467 12.351,18.445 L12.351,22.487 ZM12.351,17.688 C13.422,17.712 14.430,17.836 15.373,18.061 C15.839,16.786 16.099,15.385 16.137,13.894 L12.351,13.894 L12.351,17.688 ZM12.351,13.137 L16.137,13.137 C16.099,11.645 15.840,10.244 15.375,8.969 C14.432,9.195 13.422,9.319 12.351,9.343 L12.351,13.137 ZM12.351,8.585 C13.331,8.563 14.242,8.457 15.092,8.263 C14.452,6.815 13.530,5.552 12.351,4.537 L12.351,8.585 ZM11.593,22.494 L11.593,18.445 C10.614,18.467 9.703,18.574 8.853,18.767 C9.493,20.216 10.415,21.479 11.593,22.494 ZM8.572,8.970 C8.106,10.245 7.845,11.646 7.808,13.137 L11.593,13.137 L11.593,9.343 C10.523,9.319 9.515,9.195 8.572,8.970 ZM11.593,8.585 L11.593,4.544 C10.417,5.559 9.495,6.820 8.856,8.264 C9.705,8.457 10.615,8.564 11.593,8.585 ZM7.808,13.894 C7.845,15.386 8.105,16.787 8.570,18.062 C9.513,17.836 10.522,17.712 11.593,17.688 L11.593,13.894 L7.808,13.894 ZM10.473,22.484 C9.475,21.480 8.682,20.293 8.111,18.963 C7.231,19.229 6.420,19.596 5.671,20.068 C6.965,21.312 8.626,22.177 10.473,22.484 ZM5.138,19.510 C5.956,18.978 6.856,18.562 7.835,18.262 C7.354,16.922 7.086,15.454 7.049,13.894 L2.883,13.894 C2.972,16.040 3.808,17.997 5.138,19.510 ZM5.138,7.522 C3.808,9.034 2.972,10.990 2.883,13.137 L7.049,13.137 C7.086,11.578 7.355,10.111 7.838,8.769 C6.858,8.469 5.956,8.053 5.138,7.522 ZM5.671,6.964 C6.421,7.436 7.233,7.804 8.114,8.069 C8.686,6.739 9.482,5.551 10.482,4.545 C8.631,4.851 6.967,5.717 5.671,6.964 ZM12.351,1.391 L11.593,1.391 L11.593,2.149 L12.351,2.149 L12.351,1.391 ZM12.351,2.907 L11.593,2.907 C11.099,2.907 10.678,3.224 10.521,3.664 L11.602,3.664 C11.603,3.664 11.605,3.664 11.606,3.664 L12.347,3.664 C12.348,3.664 12.349,3.664 12.350,3.664 L13.424,3.664 C13.267,3.224 12.846,2.907 12.351,2.907 ZM13.471,4.546 C14.469,5.551 15.263,6.738 15.834,8.068 C16.714,7.803 17.524,7.436 18.274,6.964 C16.979,5.719 15.319,4.854 13.471,4.546 ZM18.807,7.522 C17.989,8.053 17.088,8.469 16.109,8.769 C16.590,10.110 16.858,11.577 16.895,13.137 L21.061,13.137 C20.973,10.990 20.137,9.034 18.807,7.522 ZM4.012,2.907 C3.385,2.907 2.875,3.417 2.875,4.044 C2.875,4.253 2.706,4.422 2.496,4.422 C2.286,4.422 2.117,4.253 2.117,4.044 C2.117,3.417 1.607,2.907 0.980,2.907 C0.770,2.907 0.601,2.737 0.601,2.528 C0.601,2.319 0.770,2.149 0.980,2.149 C1.607,2.149 2.117,1.639 2.117,1.013 C2.117,0.804 2.286,0.634 2.496,0.634 C2.706,0.634 2.875,0.804 2.875,1.013 C2.875,1.639 3.385,2.149 4.012,2.149 C4.222,2.149 4.391,2.319 4.391,2.528 C4.391,2.737 4.222,2.907 4.012,2.907 ZM2.496,2.148 C2.388,2.291 2.260,2.420 2.116,2.528 C2.260,2.636 2.388,2.765 2.496,2.908 C2.604,2.765 2.732,2.636 2.876,2.528 C2.732,2.420 2.604,2.291 2.496,2.148 ZM2.875,21.851 L3.254,21.851 L3.254,21.472 C3.254,21.263 3.423,21.094 3.633,21.094 C3.843,21.094 4.012,21.263 4.012,21.472 L4.012,21.851 L4.391,21.851 C4.601,21.851 4.770,22.020 4.770,22.230 C4.770,22.439 4.601,22.609 4.391,22.609 L4.012,22.609 L4.012,22.987 C4.012,23.196 3.843,23.366 3.633,23.366 C3.423,23.366 3.254,23.196 3.254,22.987 L3.254,22.609 L2.875,22.609 C2.665,22.609 2.496,22.439 2.496,22.230 C2.496,22.020 2.665,21.851 2.875,21.851 ZM21.070,21.093 C21.279,21.093 21.449,21.263 21.449,21.472 C21.449,21.681 21.279,21.851 21.070,21.851 C20.860,21.851 20.691,21.681 20.691,21.472 C20.691,21.263 20.860,21.093 21.070,21.093 Z"/>
</svg>