<svg 
 xmlns="http://www.w3.org/2000/svg"
 xmlns:xlink="http://www.w3.org/1999/xlink"
 width="22px" height="21px" viewBox="0 0 22 21">
<path fill-rule="evenodd"  fill="rgb(176, 207, 2)"
 d="M19.160,10.735 C17.950,11.945 16.342,12.580 14.711,12.581 C13.866,12.581 13.015,12.410 12.209,12.060 L10.911,13.357 L10.911,15.615 C10.911,15.878 10.698,16.090 10.435,16.090 L8.455,16.090 L8.455,18.070 C8.455,18.332 8.242,18.545 7.980,18.545 L6.000,18.545 L6.000,20.525 C6.000,20.651 5.950,20.771 5.860,20.861 C5.771,20.950 5.650,20.999 5.524,20.999 C5.524,20.999 5.524,20.999 5.524,20.999 L0.475,20.993 C0.473,20.993 0.470,20.993 0.468,20.993 C0.468,20.993 0.467,20.993 0.467,20.993 C0.467,20.993 0.467,20.993 0.467,20.993 C0.348,20.992 0.230,20.945 0.140,20.855 C0.050,20.765 0.004,20.649 0.001,20.532 L0.001,20.531 C0.001,20.526 0.001,20.522 0.001,20.518 L0.006,17.915 C0.006,17.790 0.056,17.669 0.145,17.580 L8.938,8.791 C7.913,6.432 8.426,3.679 10.263,1.842 C11.451,0.655 13.031,0.001 14.711,0.001 C16.392,0.001 17.972,0.655 19.160,1.842 C21.613,4.294 21.613,8.284 19.160,10.735 ZM18.488,2.514 C17.479,1.506 16.138,0.951 14.711,0.951 C13.285,0.951 11.944,1.506 10.935,2.514 C9.306,4.143 8.904,6.620 9.934,8.679 C10.026,8.862 9.990,9.083 9.846,9.227 L0.956,18.114 L0.953,19.369 L3.217,17.107 C3.402,16.921 3.703,16.921 3.889,17.107 C4.075,17.292 4.075,17.593 3.889,17.779 L1.622,20.045 L5.049,20.049 L5.049,18.070 C5.049,17.807 5.262,17.595 5.524,17.595 L7.505,17.595 L7.505,15.615 C7.505,15.353 7.718,15.140 7.980,15.140 L9.960,15.140 L9.960,13.161 C9.960,13.035 10.010,12.914 10.099,12.825 L11.772,11.153 C11.917,11.008 12.138,10.972 12.321,11.064 C14.380,12.095 16.858,11.692 18.488,10.063 C19.496,9.055 20.052,7.715 20.052,6.289 C20.052,4.863 19.496,3.522 18.488,2.514 ZM15.995,7.238 C15.423,7.238 14.851,7.020 14.415,6.585 C13.544,5.714 13.544,4.298 14.415,3.427 C15.286,2.557 16.703,2.557 17.574,3.427 C18.445,4.298 18.445,5.714 17.574,6.585 C17.139,7.020 16.567,7.238 15.995,7.238 ZM16.902,4.099 C16.402,3.599 15.588,3.599 15.087,4.099 C14.587,4.599 14.587,5.413 15.087,5.913 C15.588,6.413 16.402,6.413 16.902,5.913 C17.403,5.413 17.403,4.599 16.902,4.099 ZM5.233,16.435 C5.140,16.527 5.019,16.574 4.897,16.574 C4.776,16.574 4.654,16.527 4.561,16.435 C4.375,16.249 4.375,15.948 4.561,15.763 L10.263,10.063 C10.449,9.878 10.749,9.878 10.935,10.063 C11.121,10.249 11.121,10.550 10.935,10.735 L5.233,16.435 Z"/>
</svg>