<svg 
 xmlns="http://www.w3.org/2000/svg"
 xmlns:xlink="http://www.w3.org/1999/xlink"
 width="21px" height="17px" viewBox="0 0 21 17">
<path fill-rule="evenodd"  fill="rgb(176, 207, 2)"
 d="M19.000,17.000 L2.000,17.000 C0.914,17.000 -0.004,15.915 -0.004,14.818 C-0.004,13.955 1.158,13.275 2.000,13.000 C2.257,9.784 2.930,6.647 5.697,4.907 C6.647,4.321 7.677,3.945 8.729,3.734 C8.605,3.475 8.530,3.187 8.530,2.880 C8.530,1.784 9.414,0.890 10.500,0.890 C11.586,0.890 12.470,1.784 12.470,2.880 C12.470,3.187 12.395,3.475 12.271,3.734 C13.323,3.945 14.353,4.323 15.303,4.909 C17.850,6.471 18.850,9.100 19.131,12.912 C19.623,13.167 20.954,13.951 21.005,14.818 C21.069,15.913 20.086,17.000 19.000,17.000 ZM10.500,2.217 C10.139,2.217 9.844,2.516 9.844,2.880 C9.844,3.239 10.127,3.527 10.479,3.540 C10.492,3.540 10.507,3.540 10.521,3.540 C10.873,3.527 11.157,3.239 11.157,2.880 C11.157,2.516 10.861,2.217 10.500,2.217 ZM14.618,6.039 C13.359,5.261 11.947,4.873 10.534,4.866 C10.522,4.867 10.512,4.870 10.500,4.870 C10.488,4.870 10.478,4.866 10.466,4.867 C9.053,4.873 7.642,5.262 6.381,6.040 C4.016,7.499 3.004,10.233 3.000,13.000 L18.000,13.000 C17.996,10.233 16.984,7.499 14.618,6.039 ZM19.000,14.000 L2.000,14.000 C1.639,14.000 1.000,14.635 1.000,15.000 C1.000,15.365 1.639,16.000 2.000,16.000 L19.000,16.000 C19.361,16.000 20.000,15.365 20.000,15.000 C20.000,14.635 19.361,14.000 19.000,14.000 ZM10.500,6.196 C12.363,6.196 14.144,7.001 15.389,8.402 C15.631,8.676 15.608,9.094 15.339,9.339 C15.213,9.453 15.056,9.509 14.900,9.509 C14.720,9.509 14.542,9.434 14.412,9.289 C13.416,8.166 11.990,7.523 10.500,7.523 C10.138,7.523 9.844,7.226 9.844,6.860 C9.844,6.494 10.138,6.196 10.500,6.196 Z"/>
</svg>