<svg xmlns="http://www.w3.org/2000/svg" width="92" height="70" viewBox="0 0 92 70">
  <metadata><?xpacket begin="﻿" id="W5M0MpCehiHzreSzNTczkc9d"?>
<x:xmpmeta xmlns:x="adobe:ns:meta/" x:xmptk="Adobe XMP Core 5.6-c138 79.159824, 2016/09/14-01:09:01        ">
   <rdf:RDF xmlns:rdf="http://www.w3.org/1999/02/22-rdf-syntax-ns#">
      <rdf:Description rdf:about=""/>
   </rdf:RDF>
</x:xmpmeta>
                                                                                                    
                                                                                                    
                                                                                                    
                                                                                                    
                                                                                                    
                                                                                                    
                                                                                                    
                                                                                                    
                                                                                                    
                                                                                                    
                                                                                                    
                                                                                                    
                                                                                                    
                                                                                                    
                                                                                                    
                                                                                                    
                                                                                                    
                                                                                                    
                                                                                                    
                                                                                                    
                           
<?xpacket end="w"?></metadata>
<defs>
    <style>
      .cls-1 {
        fill: #fff;
        fill-rule: evenodd;
      }
    </style>
  </defs>
  <path id="Logo" class="cls-1" d="M445.11,91.915l-0.017.11a0.177,0.177,0,0,0,.229-0.166l0.017-.109A0.19,0.19,0,0,0,445.11,91.915Zm-2.57,1.607,0.11,0.017a0.429,0.429,0,0,0,.333-0.261l-0.088-.014A0.442,0.442,0,0,0,442.54,93.522Zm-5.952,2.239,0.014-.088-0.11-.017a0.207,0.207,0,0,0-.228.165l-0.014.087,0.109,0.017A0.177,0.177,0,0,0,436.588,95.761Zm6.395-2.482,0.307,0.049a0.694,0.694,0,0,1,.133-0.27l-0.088-.014A0.452,0.452,0,0,0,442.983,93.279Zm1.78-1.016-0.11-.017a0.207,0.207,0,0,0-.228.166l0.109,0.017A0.177,0.177,0,0,0,444.763,92.262Zm-1.887,1.692,0.045-.283-0.2-.031-0.044.284Zm1.07,2.178-0.014.088a0.4,0.4,0,0,0-.457.331l-0.4-.063,0.018-.108a2.477,2.477,0,0,1,.984-0.538,3.225,3.225,0,0,0,.731-0.779l-0.018.109q0.483,0.076.514-.12l0.017-.109-0.426.134a0.241,0.241,0,0,0-.12-0.252,0.018,0.018,0,0,0,.009-0.028,0.446,0.446,0,0,0-.2-0.14l0.019-.118c0.321,0.051.492,0.01,0.513-.121l0.2,0.031-0.032.2-0.2-.031,0.057,0.21a0.176,0.176,0,0,0,.228-0.165,0.089,0.089,0,0,1,.1.1q0.693,0.02.756-.373l-0.079-.213a3.138,3.138,0,0,0,1.34-.795l0.18,0.139a0.864,0.864,0,0,0,.471-0.417l-0.078-.213a0.1,0.1,0,0,0,.127-0.092l0.18,0.14a0.823,0.823,0,0,1,.136-0.291l-0.088-.014,0.26-.362,0.18,0.14-0.242.253,0.2,0.031a0.532,0.532,0,0,0,.348-0.348l0.2,0.031-0.017.109-0.2-.031-0.031.2a0.894,0.894,0,0,1,.381.149,0.176,0.176,0,0,0,.228-0.165l-0.109-.017,0.045-.283c0.011-.073-0.049-0.12-0.18-0.141a1.064,1.064,0,0,1,.682-0.473q0.7-1.185,1.188-1.11l0.031-.2-0.5-.079,0.018-.109q0.5,0.08.563-.291l0.087,0.013,0.184,0.119,0.243-.252-0.057-.21,0.333-.26,0.045-.283a0.8,0.8,0,0,1,.59-0.6l0.11,0.017-0.242.253,0.087,0.013a0.946,0.946,0,0,1-.3.645l-0.031.2a0.887,0.887,0,0,1,.409-0.025l0.017-.109-0.056-.21,0.211-.056a0.1,0.1,0,0,0-.092-0.126c0.159-.437.326-0.641,0.5-0.614l-0.057-.21,0.014-.087,0.162,0.115,0.109,0.017,0.031-.2-0.109-.017a15.063,15.063,0,0,1,.457-1.6l0.183,0.118-0.119.182a0.177,0.177,0,0,0,.167.227l0.087,0.013a0.712,0.712,0,0,1,.159-0.288l0.013-.087a4.443,4.443,0,0,0-.469-1.57l0.14-.179a0.434,0.434,0,0,0-.24-0.328q-0.4-2.029-4.151-4.852l-1.348-.994a0.079,0.079,0,0,0-.1.073l-1.02-.652-0.088-.013-0.211.056a1.083,1.083,0,0,0-.758-0.32l-0.215.077q0.048-.3-0.617-0.5l-0.119.182-0.18-.14-0.11-.017-0.215.078a3.125,3.125,0,0,0-1.227-.484,4.828,4.828,0,0,1-.992.022,0.09,0.09,0,0,0-.1-0.1q-0.035.218-1.4,0.07l0.013-.087a6.836,6.836,0,0,0-1.57-.157l-0.032.2,0.285,0.045-0.017.109a0.739,0.739,0,0,0-.654.3,0.6,0.6,0,0,1-.268-0.153,6.259,6.259,0,0,1-1.233.119,0.089,0.089,0,0,0-.07-0.123l-0.215.078,0.06,0.188-0.017.109-0.18-.141-0.373-.058-0.017.109a0.166,0.166,0,0,0,.144.224,0.672,0.672,0,0,1-.133.269,1.222,1.222,0,0,0,.485.769l0.211-.055q-0.062.391,0.618,0.5a0.089,0.089,0,0,1,.105-0.1,0.689,0.689,0,0,0,.332.454l0.307,0.049,0.528-.208,0.056,0.21-0.2-.032-0.031.2,0.11,0.018a1.193,1.193,0,0,0,.623-0.1l0.183,0.119a1.518,1.518,0,0,0,1.151-.312,0.579,0.579,0,0,0,.632-0.3l0.11,0.017,0.18,0.141q0.079-.5.957-0.364l0.031-.2-0.987-.155a0.206,0.206,0,0,0-.228.165,0.078,0.078,0,0,1-.074-0.1c-0.059-.009-0.327-0.021-0.8-0.036l-0.285-.044,0.014-.088a12.178,12.178,0,0,1,2.2.032l0.662,0.215-0.014.088-0.2-.032-0.031.2,0.2,0.031,0.518-.008a0.078,0.078,0,0,0,.074.1l0.014-.087,0.469,0.163,0.211-.056c-0.009.058,0.052,0.1,0.184,0.118l-0.119.182-0.184-.118-0.211.056a0.175,0.175,0,0,0,.166.227l0.088,0.014a0.175,0.175,0,0,0,.228-0.165l0.18,0.14a0.177,0.177,0,0,0,.229-0.166,0.472,0.472,0,0,1,.35.345,0.078,0.078,0,0,0,.1-0.073,0.85,0.85,0,0,1,.293.135l0.212-.056a10.961,10.961,0,0,0,1.393.71l0.214-.078-0.017.109a7.194,7.194,0,0,1,1.768,1.462,0.08,0.08,0,0,0,.1-0.073l0.349,0.345a0.823,0.823,0,0,1-.136.291,0.176,0.176,0,0,0,.166.228l0.193-.082-0.031.2a8.8,8.8,0,0,1,.376,2.159l-0.014.087a13.391,13.391,0,0,1-4.286,4.913,2.4,2.4,0,0,0-1.315,1.2l-0.158-.137-0.045.283-0.183-.118-1.671,1.033,0.2,0.031-0.063.392-0.2-.031,0.031-.2a0.089,0.089,0,0,0-.123.07,0.078,0.078,0,0,1-.074-0.1l-0.11-.017a5.783,5.783,0,0,1-1.41.671,3.772,3.772,0,0,1,.445-0.823l-0.047-.41q2.553-7.017,3.616-8.191,0.045-.283-0.434-0.381l0.119-.182c0.021-.131-0.064-0.211-0.254-0.241l0.119-.183,0.014-.087q-0.679-.107-0.6-0.586l-0.307-.048c-0.117-.018-0.2.133-0.251,0.452l-0.307-.048,0.185-.462,0.018-.109-0.215.078-0.11-.017a0.818,0.818,0,0,0-.039-0.319l0.119-.182a0.207,0.207,0,0,0-.166-0.227l-0.215.078,0.018-.108-0.215.077-0.088-.014a0.369,0.369,0,0,0-.346-0.367,4.876,4.876,0,0,0-1.14,1.519l-0.184-.118,0.246-.274-0.06-.188,0.193-.082a0.079,0.079,0,0,0-.074-0.1,1.066,1.066,0,0,1,.5-0.635l-0.048.305,0.088,0.014,0.031-.2a0.841,0.841,0,0,0-.04-0.32,2.485,2.485,0,0,1-.914.661,40.369,40.369,0,0,0-3.266,7.262,4.58,4.58,0,0,0-.015.8,0.487,0.487,0,0,1-.471.418l-0.173,2.363c0.19,0.03.275,0.11,0.254,0.241l-0.285-.044-0.018.109,0.088,0.014-0.045.284a0.09,0.09,0,0,0,.1.1,3.333,3.333,0,0,0,.225,1.13l0.2,0.031q0.045-.283.243-0.252l0.011,0.493,0.2,0.03,0.059-.37,0.087,0.014a2.62,2.62,0,0,0,0,.693,1.591,1.591,0,0,0-.558.4l0.2,0.031a0.167,0.167,0,0,0,.207-0.168,0.1,0.1,0,0,1,.092.126l0.316-.151-0.045.283a2,2,0,0,0,.683.8,0.859,0.859,0,0,1-.137.292l-0.013.087,0.087,0.014a4.534,4.534,0,0,1,1.819-.7l-0.149-.337,0.2,0.031,0.031-.2-0.11-.017a0.207,0.207,0,0,0-.228.165,0.872,0.872,0,0,1-.545.317l-0.483-.076,0.014-.087a0.711,0.711,0,0,0,.26-0.361l0.088,0.014-0.045.283,0.2,0.031,0.014-.087-0.057-.209a0.622,0.622,0,0,0,.65-0.412l-0.175-.028,0.031-.2a0.332,0.332,0,0,0,.344-0.326,0.1,0.1,0,0,1-.093-0.126l0.014-.088a0.321,0.321,0,0,0,.444-0.243,0.176,0.176,0,0,1,.166.228,0.089,0.089,0,0,0,.123-0.07l0.381,0.149a0.521,0.521,0,0,0,.615-0.194l-0.056-.21a0.189,0.189,0,0,0-.229.165,0.592,0.592,0,0,1-.268-0.154l-0.535.117,0.014-.087a0.189,0.189,0,0,1,.228-0.165l-0.056-.21a0.876,0.876,0,0,0,.408-0.025l0.06,0.188a0.854,0.854,0,0,1,.3-0.043c0.021-.13-0.064-0.211-0.254-0.241l0.031-.2a0.352,0.352,0,0,0,.457-0.33l0.088,0.014-0.031.2,0.2,0.031,0.339-.148,0.18,0.14a1.294,1.294,0,0,0,.649-0.412l0.014-.087-0.316.151-0.2-.031,0.15-.378a0.731,0.731,0,0,0,.623-0.1l0.045-.283q1.089-.633,1.213-0.7l0.11,0.017-0.059.37,0.087,0.014a1.656,1.656,0,0,0,1.077-.412l0.088,0.014-0.164.466,0.088,0.014,0.338-.148a0.368,0.368,0,0,0-.245-0.441l0.384-.431a0.86,0.86,0,0,1,.271.132,0.343,0.343,0,0,0,.453-0.308l0.088,0.014-0.014.087L448.1,90.8l0.285,0.045-0.011-.493-0.211.056,0.045-.283a0.441,0.441,0,0,0,.562-0.426l0.109,0.017-0.079.5,0.2,0.031,0.017-.109-0.078-.214,0.651-.278-0.028.174c-0.021.131-.126,0.182-0.316,0.152l-0.08.5,0.176,0.027a0.879,0.879,0,0,0-.375.522l-0.2-.031,0.059-.37-0.088-.014-0.211.056,0.057,0.21-0.014.088-0.5.033,0.057,0.209a1.264,1.264,0,0,1-1,.625l-0.017.109Q447.5,92,447.471,92.2a0.651,0.651,0,0,0,.668-0.386l-0.11-.017a0.7,0.7,0,0,0,.158-0.288l0.2,0.031a0.1,0.1,0,0,1-.127.092,0.714,0.714,0,0,0,.064.3,4.178,4.178,0,0,1-1.486,1.153l-0.11-.018q0.037-.24.44-0.222l-0.057-.21a2.117,2.117,0,0,1-.9.552l-0.017.109,0.057,0.21a1.486,1.486,0,0,0-.889.643,0.394,0.394,0,0,0-.443.243l-0.4-.063a3.154,3.154,0,0,1,1.416-1.274l0.018-.109a0.722,0.722,0,0,0-.325.061,1.645,1.645,0,0,1-1.2.615l0.031-.2-0.2-.031a0.448,0.448,0,0,1-.178.223l-0.063-.022v0.071c-0.032.024-.067,0.05-0.107,0.075l-0.013.088,0.056,0.21a0.528,0.528,0,0,0-.439.222,0.078,0.078,0,0,1-.074-0.1,0.7,0.7,0,0,1-.457.33l-0.032.2,0.2,0.031,0.957-.364,0.2,0.031-0.017.109a0.513,0.513,0,0,0-.471.418l-0.088-.014-0.276-.245-0.031.2-0.162-.115-0.109-.017q-0.231.746-.516,0.7l-0.088-.014,0.045-.283c0.19,0.03.3-.021,0.316-0.152a0.435,0.435,0,0,0-.24-0.328l-0.109-.017-0.031.2,0.2,0.031-0.014.088-0.482-.076-0.014.087,0.056,0.21a0.09,0.09,0,0,0-.1.1l-0.014.087,0.2,0.032-0.141.179-0.184-.118-0.15.378L441.8,95.8l-0.18-.14-0.141.179,0.465,0.185-0.028.174-0.285-.044,0.028-.175-0.088-.013c-0.131-.021-0.217.092-0.256,0.339l-0.307-.048a4.927,4.927,0,0,0-1.5.68,2.93,2.93,0,0,0,1.014-.153l-0.057-.21,0.378,0.171a2.978,2.978,0,0,1-1.306.576l-0.363-.258a0.994,0.994,0,0,0-.633.3l-0.307-.049,0.014-.087,0.412-.047a0.433,0.433,0,0,0-.24-0.328l-0.11-.017a2.24,2.24,0,0,1-1.23.812l0.079,0.213-0.11-.017-0.18-.14a0.48,0.48,0,0,0-.26.362l-0.254-.241a0.079,0.079,0,0,1,.1-0.073,0.18,0.18,0,0,0-.145-0.224,2.2,2.2,0,0,1-.533.81,0.742,0.742,0,0,1-.377-0.171,0.727,0.727,0,0,1-.324.061l0.078,0.213-0.014.087a3.393,3.393,0,0,0-.838.182,0.709,0.709,0,0,0-.363-0.258l0.017-.109q0.395,0.062.44-.221A0.09,0.09,0,0,1,434.322,98q-0.789-.123-0.851.269l-0.2-.031-0.468-.163a0.575,0.575,0,0,0-.384.431l-0.087-.014,0.045-.283a4.541,4.541,0,0,1-.909.058l-0.078-.213a0.628,0.628,0,0,0-.629.281l0.2,0.031-0.017.109-0.11-.017-0.18-.14a0.089,0.089,0,0,1-.105.1l-0.109-.017,0.017-.109a0.587,0.587,0,0,1,.563-0.292l0.031-.2-0.535.117,0.017-.109a0.71,0.71,0,0,1-.426.134l-0.045.284,0.11,0.017,0.211-.056a0.582,0.582,0,0,1-.155.266c-0.011.072,0.086,0.125,0.29,0.157a0.721,0.721,0,0,0-.155.266L429.88,98.8a0.879,0.879,0,0,0-.545.316l-0.307-.048a0.6,0.6,0,0,0-.3.064A0.1,0.1,0,0,0,428.633,99a0.7,0.7,0,0,1-.259.361,2.217,2.217,0,0,0-.649-0.3,0.176,0.176,0,0,1-.228.165l-0.483-.076L427,99.238a1.9,1.9,0,0,0,.907.656l0.215-.078a0.331,0.331,0,0,0,.254.241l0.211-.057a1.855,1.855,0,0,0,.92.435l0.211-.056a0.881,0.881,0,0,0,.381.149l-0.017.109a1.048,1.048,0,0,0-.5.011l0.056,0.211-0.2-.031-0.031.2,0.307,0.048a9.049,9.049,0,0,0,1.408-.092l-0.06-.188a0.7,0.7,0,0,1,.271.133l0.44-.222a0.691,0.691,0,0,1,.271.131l0.518-.007,0.184,0.118,0.045-.284a0.913,0.913,0,0,0-.409.025l-0.2-.03,0.014-.088a1.2,1.2,0,0,0,.623-0.1c0.058,0.01.077,0.079,0.056,0.21l0.395,0.062a0.634,0.634,0,0,0,.545-0.316l0.183,0.118a0.177,0.177,0,0,0,.229-0.166l0.014-.087-0.2-.031,0.031-.2a5.028,5.028,0,0,0,1.7-.537l0.088,0.013-0.018.11-0.471.418a1.992,1.992,0,0,0,1.278-.4l-0.307-.048,0.031-.2q0.394,0.062.44-.222l0.2,0.031,0.605,0.006a0.864,0.864,0,0,0,.272.132,0.742,0.742,0,0,0,.654-0.3,0.586,0.586,0,0,0-.3.064,0.7,0.7,0,0,0-.29-0.157l0.031-.2,1.229-.1a1.661,1.661,0,0,1,.686-0.5l0.18,0.14a0.089,0.089,0,0,1,.105-0.1l0.773-.482,0.18,0.14a1.77,1.77,0,0,1,1-.647l0.18,0.14a0.709,0.709,0,0,1,.158-0.287,0.7,0.7,0,0,1,.268.153,0.5,0.5,0,0,1,.545-0.317,1.659,1.659,0,0,1,.809-0.566A0.19,0.19,0,0,0,443.946,96.133Zm8.945-7.778-0.2-.031,0.014-.087,0.2,0.031Zm0.644-2.781,0.109,0.017a0.693,0.693,0,0,0,.043.3l-0.215.078Zm-0.362.435-0.076.479-0.109-.017a1.1,1.1,0,0,0-.012-0.493Zm-0.291.558,0.088,0.014-0.031.2-0.088-.014Zm-0.171.375,0.109,0.017L453,87.077a0.078,0.078,0,0,1,.1-0.074,1.876,1.876,0,0,1,.533-0.809,0.843,0.843,0,0,0,.034.5,0.189,0.189,0,0,0-.228.165l0.056,0.21a0.077,0.077,0,0,0-.1.074,0.859,0.859,0,0,0,.025.406l-0.26.361a0.586,0.586,0,0,0,.065.3l-0.031.2-0.11-.017,0.045-.283a0.079,0.079,0,0,0-.1.074l-0.275-.244a0.09,0.09,0,0,1,.123-0.071,0.579,0.579,0,0,0-.065-0.3l0.141-.179-0.078-.213-0.211.056Zm-0.35.928,0.18,0.14-0.164.465-0.11-.017Zm-0.435.334,0.088,0.014-0.032.2L451.9,88.4Zm-0.231-.527,0.183,0.118-0.017.109-0.18-.14Zm-0.15.378,0.088,0.014-0.032.2-0.087-.014Zm0.025,0.406,0.276,0.245,0.031-.2a0.753,0.753,0,0,0,.359.146c-0.021.131-.126,0.181-0.316,0.151L452,89.02a0.177,0.177,0,0,1-.229.165l-0.11-.017a0.857,0.857,0,0,0-.209-0.524Zm-12.8-9.695-0.088-.013,0.031-.2,0.088,0.014Zm0.135,0.424-0.088-.014,0.031-.2,0.088,0.014Zm0.807,0.015-0.61.016-0.057-.21a3.232,3.232,0,0,0,.694.019Zm0.214-1.351a0.175,0.175,0,0,0-.228.165l-0.465-.185-0.11-.017a5.479,5.479,0,0,1-.821.072l-0.285-.044,0.014-.088,1.926-.1Zm1.708,1.273,0.088,0.014-0.031.2-0.088-.014Zm-0.889-2.039,0.2,0.031-0.014.087-0.2-.031Zm-0.395-.061,0.2,0.031-0.014.087-0.2-.031Zm0.3,0.651-0.014.087-0.2-.031,0.014-.087Zm-0.469,1.11a0.517,0.517,0,0,1,.528-0.208l-0.045.284Zm0.72,0.426-0.028.174-0.2-.031A0.183,0.183,0,0,1,440.9,79.212Zm0.13-1.387-0.2-.031,0.013-.088,0.2,0.031Zm0.2,0.031-0.109-.018,0.031-.2,0.109,0.017Zm0.606,0.005-0.307-.048,0.031-.2a0.835,0.835,0,0,0,.294.135Zm0.39-.05-0.285-.045,0.014-.087,0.285,0.044Zm2.726,1.232-0.2-.031,0.017-.109,0.2,0.031Zm1.131,0.379-0.013.087a0.435,0.435,0,0,1-.24-0.329l0.087,0.014A0.175,0.175,0,0,1,446.083,79.422Zm4.6,3.313L450.4,82.69l0.017-.109,0.285,0.045Zm-7.074,4.073-0.088-.014,0.031-.2,0.088,0.013Zm0.144-1.475,0.164-.466,0.183,0.119a0.764,0.764,0,0,0-.273.448l-0.088-.014Zm-0.141.179,0.11,0.017-0.031.2-0.11-.017Zm-0.195.662,0.2,0.03-0.013.088-0.2-.031Zm-2.3-3.758,0.18,0.14-0.141.179,0.078,0.214a0.84,0.84,0,0,0-.321.039Q440.92,82.923,441.113,82.418Zm0.133,4.109-0.031.2-0.088-.014,0.032-.2Zm-0.307-1.746,0.088,0.014-0.031.2-0.088-.014Zm-0.149-1.61,0.088,0.014-0.031.2-0.088-.014Zm-0.874,2.253,0.109,0.017-0.045.284-0.109-.017Zm-0.2,1.958a0.77,0.77,0,0,0,.274-0.448l0.087,0.013a0.846,0.846,0,0,0,.034.5l-0.443.243Zm-0.093.588q-0.077.48,0.121,0.51l-0.018.11-0.109-.018a0.711,0.711,0,0,1-.268-0.153l0.164-.466Zm-0.313-1.144L439.4,86.84l-0.032.2-0.087-.014ZM439.13,89.1l0.109,0.018-0.031.2L439.1,89.3Zm-0.164.466,0.087,0.014-0.062.392-0.088-.014Zm0.153,3.421-0.045.283-0.2-.031,0.017-.109A0.181,0.181,0,0,1,439.119,92.986Zm-0.261-2.745-0.164.466-0.109-.017L438.6,90.6l0.14-.179a0.587,0.587,0,0,0-.064-0.3l0.214-.078Zm-0.187,1.178,0.184,0.118-0.108.675-0.109-.018A3.379,3.379,0,0,0,438.671,91.418Zm-0.032-2.91,0.088,0.014-0.031.2-0.088-.014Zm-0.158.288,0.11,0.017a0.822,0.822,0,0,0,.042.3l-0.017.109-0.2-.03Zm-0.064,2.38a0.848,0.848,0,0,0,.137-0.291l0.109,0.017-0.017.109a0.6,0.6,0,0,0-.155.266l-0.088-.014Zm-0.162-1.523,0.087,0.014-0.045.283-0.087-.013ZM437.978,91.4l0.2,0.031-0.031.2-0.2-.031Zm-0.308,1.94-0.11-.017,0.031-.2,0.11,0.018Zm0.195-.662-0.184-.118a0.714,0.714,0,0,1,.158-0.288l-0.078-.213c0.073,0.012.13-.114,0.172-0.375L438.02,91.7Zm0.225,1.13L438,93.793l0.031-.2,0.088,0.014Zm0.185-.462-0.18-.14a0.7,0.7,0,0,0,.133-0.269l0.11,0.017Zm0.035-1.492,0.045-.284,0.088,0.014-0.045.283Zm0.123,2.9,0.381-1.124,0.11,0.017-0.031.2Q438.74,94.8,438.433,94.754ZM439,95.736l-0.11-.017,0.076-.48,0.18,0.141Zm0.171-3.056-0.018.11a0.207,0.207,0,0,1-.166-0.227l0.062-.393q0.2,0.032.246-.274l0.11,0.017-0.031.2-0.26.361Zm0.249,3.525-0.11-.018,0.031-.2q0.045-.283.243-0.252Zm0.149-4.759-0.088-.013,0.045-.284,0.088,0.014Zm0.062-.392-0.088-.014,0.045-.283,0.2,0.031A0.715,0.715,0,0,0,439.628,91.054ZM440,90.017L439.907,90l0.032-.2,0.087,0.014Zm0.155-.266-0.11-.017,0.031-.2,0.11,0.017Zm0.052-2.874-0.307-.048,0.017-.11a0.842,0.842,0,0,0,.321-0.039Zm0.083-1.8-0.2-.031,0.013-.087,0.2,0.031Zm0.129,1.026-0.088-.014,0.032-.2,0.087,0.014Zm0.3,7.62-0.087-.013,0.031-.2,0.088,0.013Zm0.01-8.265-0.2-.03,0.031-.2a0.19,0.19,0,0,1,.228-0.166l0.2,0.031-0.032.2A0.176,0.176,0,0,0,440.719,85.461Zm0.338,7.918-0.088-.014,0.031-.2,0.088,0.014Zm-0.037-.9,0.031-.2,0.088,0.014-0.031.2Zm0.144,0.224,0.11,0.017L441.229,93l-0.11-.017Zm0.106,1.312L441.161,94l0.031-.2,0.11,0.018Zm1.1-6.91,0.031-.2,0.088,0.014-0.031.2Zm0.188,1.928-0.088-.014,0.032-.2,0.087,0.014Zm0.1-1.191-0.11-.017,0.031-.2,0.11,0.017Zm0.589-.6-0.087-.014A0.177,0.177,0,0,0,442.991,87l0.032-.2,0.087,0.014,0.18,0.139Zm-0.094-3.791a0.189,0.189,0,0,1,.228-0.165l-0.014.087-0.185.463-0.088-.014Zm-0.125,2.058-0.031.2-0.11-.017,0.031-.2Zm-0.068-4.1-0.08.5a0.634,0.634,0,0,0-.355-0.168A0.635,0.635,0,0,1,442.958,81.412Zm-0.95,4.14a3.115,3.115,0,0,1,.666-1.08,0.7,0.7,0,0,0,.065.3l-0.11-.017a2.089,2.089,0,0,1-.683,1.189Zm-0.226.858c0.03-.189.111-0.274,0.242-0.253l-0.186.463-0.087-.014Zm-0.155,5.36-0.11-.017,0.045-.283,0.11,0.017Zm-0.155-1.007,0.11,0.018-0.028.174-0.109-.017Zm4.961,0.466-0.2-.031,0.013-.087,0.2,0.031Zm0.889-.642-0.18-.14-0.088-.013-0.215.078,0.017-.11a0.438,0.438,0,0,1,.331-0.238l0.2,0.031Zm0.189-.484-0.2-.031a0.207,0.207,0,0,1,.228-0.165Zm0.237,0.35-0.181-.14a0.208,0.208,0,0,1,.229-0.165Zm0.671-.409-0.109-.017,0.062-.393,0.11,0.018Zm0.826,1.738-0.2-.03a0.191,0.191,0,0,1,.229-0.166Zm0.742-.285-0.2-.031a0.191,0.191,0,0,1,.229-0.166Zm1.3-3.795-0.031.2-0.167.488-0.11-.017-0.158-.136a0.972,0.972,0,0,0,.379-0.544Zm-0.209-.524,0.088,0.013-0.017.109-0.393.631a0.207,0.207,0,0,1-.166-0.227A1.109,1.109,0,0,0,451.077,87.177ZM450.586,89a0.189,0.189,0,0,1,.228-0.165l-0.014.087a0.176,0.176,0,0,1-.228.165Zm-0.649-.3a0.827,0.827,0,0,0,.133-0.27l0.2,0.031-0.027.174a0.177,0.177,0,0,0-.229.165l-0.088-.014Zm0.24,0.328-0.031.2-0.2-.031A0.207,0.207,0,0,1,450.177,89.024Zm-0.488.527,0.11,0.017-0.032.2-0.109-.017Zm-0.746,1.581,1.174-1.022,0.088,0.014-0.031.2,0.109,0.017,0.317-.151,0.087,0.014a1.337,1.337,0,0,0-.528.922l-0.592-.093,0.119-.183L449.4,90.8l-0.045.283,0.2,0.031a0.1,0.1,0,0,1-.127.092l0.231,0.528a0.72,0.72,0,0,0-.325.06,0.4,0.4,0,0,0-.42-0.468Zm-0.637.19,0.031-.2,0.11,0.018a0.175,0.175,0,0,1,.166.227Zm-0.626,1.4,0.109,0.017-0.031.2-0.11-.017Zm-1.262,1.008,0.11,0.017-0.032.2-0.109-.017Zm-0.18-.14,0.11,0.017-0.032.2-0.109-.016Zm-0.212.77-0.032.2-0.087-.013a0.189,0.189,0,0,1-.167-0.227Zm-2.017-.607,0.019,0v0.08l0.03,0.014L444,93.84Zm-0.017,1.383a0.709,0.709,0,0,0,.26-0.362l0.2,0.031-0.017.11a0.709,0.709,0,0,0-.257.339l-0.2-.031Zm-0.229.165a0.176,0.176,0,0,1,.167.227l0.214-.078-0.017.109a0.694,0.694,0,0,1-.457.33,0.206,0.206,0,0,1-.166-0.227A0.7,0.7,0,0,0,443.763,95.3Zm-0.437-.359,0.088,0.014-0.028.174-0.088-.014Zm-13.289,5.979-0.285-.044,0.031-.2,0.285,0.044Zm-0.264-1.449a0.607,0.607,0,0,0-.3.065,0.189,0.189,0,0,1-.166-0.227l0.482,0.075Zm0.285,0.045-0.2-.031,0.045-.283,0.505,0.079A0.432,0.432,0,0,1,430.058,99.516Zm1.15-.311-0.2-.031,0.014-.088,0.2,0.031Zm0.186-.462-0.2-.032,0.017-.109,0.2,0.031Zm2.223,0.438,0.11,0.017-0.031.2-0.11-.017Zm-1.328-.41,0.922-.146-0.031.2a0.4,0.4,0,0,0-.471.418,1.021,1.021,0,0,0-.469-0.163Zm-0.246.274,0.109,0.017-0.031.2-0.109-.017Zm-0.42-.468,0.285,0.045-0.014.087-0.285-.045Zm-0.02.689-0.088-.013,0.014-.088a0.509,0.509,0,0,1,.444-0.243l-0.032.2C431.737,99.087,431.624,99.137,431.6,99.267Zm1.122,0.579a3.578,3.578,0,0,0-.758-0.32l0.014-.088,0.482,0.076,0.183,0.118a0.09,0.09,0,0,1,.124-0.07l0.2,0.031Zm0.485,0.768-0.2-.031a0.208,0.208,0,0,1,.229-0.165Zm0.093-.588-0.109-.017,0.027-.175,0.11,0.017Zm0-.693,0.014-.088,0.2,0.031-0.014.088Zm0.512,0.594-0.307-.049,0.018-.108,0.307,0.048Zm0.41-.74-0.285-.045,0.017-.109,0.285,0.045Zm0.215-.078,0.045-.283,0.307,0.048A0.433,0.433,0,0,1,434.438,99.109Zm1.653-.924,0.2,0.031-0.014.087-0.2-.031Zm-0.362.435,0.014-.087,0.285,0.045-0.014.087Zm0.4,1.157-0.176-.028,0.014-.087,0.176,0.027Zm0.31-1.247-0.285-.045,0.014-.088,0.285,0.045Zm0.911-.64a1.719,1.719,0,0,0,1.044-.35l0.2,0.031q-0.063.392-1.27,0.493Zm-0.471.418,0.031-.2,0.2,0.031A0.177,0.177,0,0,1,436.88,98.309Zm0.192,0.633-0.088-.014,0.031-.2,0.285,0.045A0.176,0.176,0,0,1,437.072,98.942Zm0.386-.453q0.013-.088-0.183-0.119l0.017-.109,0.482,0.076-0.017.109A0.7,0.7,0,0,0,437.458,98.489Zm0.6,0.607-0.013.088-0.11-.017a0.684,0.684,0,0,0-.271-0.132l0.017-.109,0.088,0.014A0.7,0.7,0,0,0,438.058,99.1Zm-0.072-.815-0.2-.031,0.018-.109,0.2,0.031Zm0.679,0.107-0.2-.031,0.017-.109,0.2,0.031Zm0.528-.207a0.168,0.168,0,0,1-.225.143l-0.088-.014,0.028-.174a0.591,0.591,0,0,0,.3-0.064Zm0.993-.449-0.11-.017-0.18-.14-1.185.529-0.286-.045,0.018-.11a4.908,4.908,0,0,0,1.379-.476l0.381,0.149Zm0.192-.081a0.433,0.433,0,0,1-.24-0.329l0.285,0.045Zm1.021-.622-0.11-.017,0.031-.2,0.11,0.017Zm0.316-.151-0.2-.031,0.018-.109,0.2,0.032Zm0.423-.827-0.087-.014,0.031-.2,0.088,0.014Zm0.249,0.419,0.013-.087a0.436,0.436,0,0,1,.33-0.239l0.11,0.017A0.679,0.679,0,0,1,442.387,96.469ZM441.3,95.115a0.432,0.432,0,0,0,.24.328l0.11,0.017,0.014-.088-0.079-.213,0.395,0.063,0.049-.306-0.088-.014A0.534,0.534,0,0,0,441.3,95.115Zm1.975-1.679a0.176,0.176,0,0,0,.166.227,3.029,3.029,0,0,1,1.076-.546l0.014-.087a0.177,0.177,0,0,1-.167-0.227A3.18,3.18,0,0,0,443.273,93.436Zm1.806-1.325a0.206,0.206,0,0,0-.166-0.227l-0.088-.014,0.026,0.406A0.176,0.176,0,0,0,445.079,92.111Zm-3.16,2.207-0.088-.014a0.189,0.189,0,0,0-.228.165l0.285,0.044Zm2.57-1.607,0.2,0.031,0.027-.175A0.181,0.181,0,0,0,444.489,92.711Zm-1.477-13.48-0.031.2,0.11,0.017,0.031-.2Zm-0.3.064-0.2-.032-0.032.2,0.2,0.031Zm2.518,13.152,0.2,0.031a0.189,0.189,0,0,0-.166-0.227ZM444.07,79.508l0.183,0.118,0.11,0.017,0.189-.06-0.057-.21a0.078,0.078,0,0,0-.1.073,0.822,0.822,0,0,1-.293-0.135c-0.19-.03-0.3.02-0.317,0.151a0.845,0.845,0,0,1,.272.132Zm1.014,14.413,0.307,0.048,0.031-.2-0.11-.017A0.206,0.206,0,0,0,445.084,93.921Zm0.384-1.146a1.307,1.307,0,0,0,.686-0.5l-0.088-.014a1.22,1.22,0,0,0-.584.422Zm1.033-.843a0.181,0.181,0,0,0-.206.169l-0.018.109a0.43,0.43,0,0,0,.334-0.26Zm-0.57-.09-0.412.047-0.031.2,0.087,0.014A0.44,0.44,0,0,0,445.931,91.842Zm0.225,1.131a3.051,3.051,0,0,0,.906-0.752l-0.056-.209a4.16,4.16,0,0,1-1.02.756A0.167,0.167,0,0,0,446.156,92.973Zm-9.32,3.63,0.11,0.017a0.176,0.176,0,0,0,.228-0.165l-0.109-.017A0.208,0.208,0,0,0,436.836,96.6ZM448.8,93.3a0.437,0.437,0,0,0,.33-0.239l0.018-.109a0.714,0.714,0,0,1-.4.137l-0.031.2Zm-1.369,1.684,0.018-.11-0.2-.031-0.017.109Zm0.825-1.368-0.014.087a0.437,0.437,0,0,0,.33-0.238l-0.088-.014A0.189,0.189,0,0,0,448.257,93.615Zm-1.411.672,0.088,0.014,0.031-.2-0.088-.014Zm0.043,0.3,0.2,0.031,0.014-.087-0.2-.031ZM447,93.909l-0.031.2,0.11,0.017,0.031-.2ZM432.607,98.04l-0.2-.031-0.031.2A0.176,0.176,0,0,0,432.607,98.04Zm10.032-.614a0.1,0.1,0,0,0-.092-0.126l-0.017.109a0.2,0.2,0,0,0,.394.062l0.018-.11-0.088-.014Zm11.314-9.395-0.185.462-0.018.109a0.507,0.507,0,0,0,.37-0.344A0.189,0.189,0,0,0,453.953,88.031Zm-3.388,3.645,0.285,0.045,0.014-.087-0.285-.045Zm3.615-4.5-0.031.2,0.2,0.031,0.031-.2Zm-5.619,5.8-0.014.088,0.2,0.031L448.759,93Zm1.234-2.107,0.045-.283-0.211.056A0.176,0.176,0,0,0,449.8,90.863ZM429.53,98.45q-0.492-.01-0.527.208l-0.018.109A0.866,0.866,0,0,0,429.53,98.45ZM444.4,95.8l-0.045.284,0.175,0.027a0.716,0.716,0,0,1,.426-0.134L445,95.7Zm-0.274.449,0.2,0.031,0.031-.2-0.2-.031Zm-6.739,3.231,0.2,0.031,0.018-.109-0.2-.031Zm3.691-3.71,0.031-.2-0.087-.014-0.032.2Zm-5.836,2.077,0.017-.11-0.623.1,0.078,0.213C435.045,98.065,435.221,98,435.245,97.851Zm0.335-.842-0.2-.031-0.014.087,0.2,0.031Zm-1.25,1.5,0.2,0.032,0.017-.11a0.206,0.206,0,0,0-.166-0.227Zm0.664-2.2-0.2-.031-0.014.088,0.2,0.031ZM434.912,97.4a0.176,0.176,0,0,0,.229-0.165l-0.2-.031Zm1.338-1.488-0.2-.031-0.017.109,0.2,0.031Zm-7.659,2.8a0.753,0.753,0,0,1-.378-0.171,0.6,0.6,0,0,0-.53.229l-0.032.2A0.98,0.98,0,0,0,428.591,98.705Zm7.909-1.261,0.079,0.213,1.427-.781,0.014-.087-0.109-.018a0.436,0.436,0,0,0-.331.239q-0.789-.123-0.882.465l-0.184-.118Zm-7.323,3.229,0.2,0.031,0.014-.087-0.2-.031Zm8.128-23.434,0.031-.2-0.2-.031a0.182,0.182,0,0,0-.207.168l-0.017.109A0.637,0.637,0,0,1,437.305,77.24Zm-5.658,23.732,0.285,0.045,0.031-.2-0.285-.045Zm5.7-5.584q-0.515-.014-0.549.2l-0.018.109,0.11,0.017A0.692,0.692,0,0,0,437.344,95.388Zm28.8-7.142,0.006-.178-0.182.016-0.011.065a1.385,1.385,0,0,1-.056.215l-0.014.087,0.091-.008a0.161,0.161,0,0,0,.156-0.132Zm-3.544-.891,0.007-.044-0.009-.09-0.178-.006,0,0.268A0.152,0.152,0,0,0,462.6,87.355Zm1.873,10.28,0.182-.016,0-.156-0.179-.006Zm-1.4,3.176,0.016,0.181L463.266,101l-0.016-.182Zm-0.114-14.138-0.008-.09-0.087-.014a0.389,0.389,0,0,0-.22.39l-0.042.262A0.8,0.8,0,0,0,462.957,86.673Zm2.141,6.19-0.358-.012a0.088,0.088,0,0,0,.078.079l0.022,0a1.1,1.1,0,0,1-.111.273l0.008,0.091,0.27,0a1.045,1.045,0,0,1,.009-0.2A0.539,0.539,0,0,1,465.1,92.863Zm-2.805,3.648-0.02.13,0.179,0.006-0.025-.272A0.136,0.136,0,0,0,462.293,96.511Zm2.887-7.278-0.088-.013a0.428,0.428,0,0,1,0,.133,0.26,0.26,0,0,1-.265.249l0,0.156,0.091-.008,0.439-.355C465.371,89.308,465.312,89.254,465.18,89.233Zm0.622,0.612-0.091.008a0.618,0.618,0,0,0-.339.438l0.085,0.17-0.1.186-0.014.087,0.179,0.005A2.271,2.271,0,0,1,465.8,89.845Zm-0.862.335,0.066,0.01,0.006-.178-0.183.016A0.132,0.132,0,0,0,464.94,90.18Zm-12.093,6.234a2.757,2.757,0,0,1,.1.529,3.413,3.413,0,0,1,.71,1.049l0.176,0.028c0.467,0.074.707,0.215,0.719,0.426l0.444-.109,0.179,0.006-0.02.265a0.2,0.2,0,0,0,.192-0.216l0.007-.043,0.62,0.343,0.087,0.013,0.006-.177a1.124,1.124,0,0,1,.612.253l0.27,0,0.165,0.093a0.593,0.593,0,0,0,.28-0.068,3.783,3.783,0,0,1,.045-0.707A5.031,5.031,0,0,1,458.1,96.3a0.964,0.964,0,0,1,.178.006,0.321,0.321,0,0,1,.339.276l0.273-.024a1.731,1.731,0,0,0,.725.248l0.153,0.024a2.864,2.864,0,0,1,1-.356l-0.02.264a1.915,1.915,0,0,0,.805-0.253,1.414,1.414,0,0,0,.335,1.147l0.022,0-0.177.263,0.091-.008L462,97.805l0,0.156-0.183.016,0.013,0.628a3.043,3.043,0,0,0,.891,1.748l-0.1-.62,0.179,0.006,0.006-.177-0.091.008-0.175.107,0-.269a0.259,0.259,0,0,0,.276-0.18l0-.021a1.5,1.5,0,0,1-.244-0.017,0.8,0.8,0,0,1-.194-0.053l0.007-.044a0.214,0.214,0,0,1,.247-0.14l0.011-.355-0.091.008-0.193.081-0.085-.169,0-1.251,0.092-.008a2.819,2.819,0,0,0,.078.639l0.091-.008,0.193-.082c-0.009.148,0.031,0.228,0.119,0.243l0.044,0.007,0.091-.008a0.676,0.676,0,0,1,.377-0.254l-0.085-.169a0.1,0.1,0,0,0-.1.1,0.731,0.731,0,0,0-.213-0.078l-0.043-.007,0-.178,0.161-.019,0-.269-0.183.016L462.9,97.1a0.705,0.705,0,0,1,.085-0.255l-0.177-.721a0.527,0.527,0,0,0,.234-0.343l0.014-.087,0.091-.008,0.286,0.179-0.093.164-0.007.893-0.094.164,0.179,0.006-0.1.186,0.033,0.362,0.085,0.17,0.171-.085-0.11-.442,0.007-.893,0.095-.879,0.179,0.005,0.264,0.175-0.094.165,0.008,0.09,0.086,0.17a0.755,0.755,0,0,0-.2.549l0.111,0.151-0.017.109q-0.031.2-.158,0.712a1.429,1.429,0,0,0,.215.056l0.066,0.01-0.014.087a0.857,0.857,0,0,0-.262.093l0.088,0.439,0,0.446-0.022,0a0.793,0.793,0,0,1-.257-0.509,0.816,0.816,0,0,0-.437.066,0.086,0.086,0,0,0-.077-0.079l-0.022,0-0.179-.006a0.192,0.192,0,0,1,.008.091,0.505,0.505,0,0,1-.072.166l0.071,0.548-0.072.168a1.466,1.466,0,0,1,.255.8l0.179,0a7.527,7.527,0,0,1-.167-0.785l0-.022a0.17,0.17,0,0,1,.171-0.085l-0.011-.069-0.179-.005,0-.022a0.18,0.18,0,0,1,.181-0.151l0.092-.008c0.014,0.285.073,0.436,0.175,0.451l0.022,0a2.485,2.485,0,0,0,.42,1.318,3.779,3.779,0,0,0-.251-1.246l0.074-.19-0.085-.169a0.122,0.122,0,0,0,.087-0.121l0.01-.065,0.088,0.014-0.006.178,0.179,0.006,0.01-.065a0.236,0.236,0,0,1,.258-0.206,0.1,0.1,0,0,0,.1.1l0.072-.458a0.2,0.2,0,0,0-.173-0.184l-0.02.265h-0.135l-0.016-.605a1.127,1.127,0,0,1,0-.313,1.021,1.021,0,0,1,.153-0.4l-0.082-.191,0.179-.419a0.735,0.735,0,0,1-.076-0.37l-0.008-.091,0.358,0.012,0-.537-0.091.008-0.006.178a0.106,0.106,0,0,1-.1-0.1l-0.253.183,0-.178a3.835,3.835,0,0,1,.618-0.774l-0.088-.014a1.976,1.976,0,0,1,.361-0.435l-0.008-.091-0.179-.005,0-.268,0.179,0.005L465.1,94,464.918,94l0.011-.356,0.187,0.1,0.066,0.011,0.02-.265-0.529.073a0.923,0.923,0,0,0-.234-0.081l-0.044-.007-0.02-.159a1.921,1.921,0,0,0,.266-0.115l-0.066-.435-0.008-.09a0.272,0.272,0,0,0,.268-0.27,0.665,0.665,0,0,0,0-.156,1.239,1.239,0,0,1-.278-0.088,0.851,0.851,0,0,1,.45-0.712,0.7,0.7,0,0,1-.167-0.361l-0.182.016-0.007.043a0.152,0.152,0,0,1-.178.129l0.085,0.17,0.016,0.182a1.561,1.561,0,0,0-.335.84l-0.021.131,0.165,0.093a4.285,4.285,0,0,1-.252.876l-0.457-.094,0.091-.432-0.179-.006,0.011,0.359-0.091.008-0.166-.092-0.1.186-0.187-.1a11.026,11.026,0,0,0,.167-1.337l0.014-.087a0.669,0.669,0,0,0-.254.608l-0.028.174a0.1,0.1,0,0,1,.1.1,0.528,0.528,0,0,1-.248.43,0.555,0.555,0,0,0-.119-0.242,1.035,1.035,0,0,1,.111-0.273l-0.086-.169,0.072-.168-0.084-.46a0.411,0.411,0,0,0,.264-0.249l0-.022-0.01-.359-0.16.02-0.025-.272a0.232,0.232,0,0,0,.273-0.158l0-.022-0.087-.438,0.182-.016-0.008-.091-0.182.016,0.005-.177,0.191,0.075a0.615,0.615,0,0,1,0-.156,0.185,0.185,0,0,1,.166-0.2l0.016-.243-0.206-.256,0.182-.017a0.059,0.059,0,0,0-.055-0.076l-0.022,0a0.338,0.338,0,0,1,.268-0.271,0.094,0.094,0,0,0-.074-0.1l0.049-.171-0.081-.192,0.369-.344-0.018.533-0.075.189,0.092-.008a0.785,0.785,0,0,0-.15.379l-0.025.152-0.187-.1-0.091.008a0.613,0.613,0,0,0,.267.444l0.022,0-0.094.164-0.019.265,0.179,0.006q0.194-1.221.463-1.223l-0.013.088a0.713,0.713,0,0,1-.086.254l0.086,0.171a0.691,0.691,0,0,1-.01.2,4.36,4.36,0,0,1-.166.621l0.186-.038-0.006.178-0.01.065a0.133,0.133,0,0,1-.153.111l-0.031-.228-0.179-.006,0.022,0.428,0.088,0.014a0.169,0.169,0,0,1,.177.162l-0.006.178-0.088-.014a0.42,0.42,0,0,0-.445.4,0.659,0.659,0,0,0,0,.156l0.092-.008-0.076.189-0.013.087,0.182-.016a1.045,1.045,0,0,1,.009-0.2c0.026-.16.083-0.24,0.173-0.241l-0.107-.173,0.014-.087,0.022,0a0.5,0.5,0,0,1,.258.354q-0.2-.01-0.27.427l-0.014.087,0.179,0.005a7.243,7.243,0,0,0,.5-1.619,3.746,3.746,0,0,0,.043-0.417l0-.022a0.059,0.059,0,0,1,.076-0.055l-0.024-.272a2.258,2.258,0,0,0,.134-0.559l0.052-.327-0.179-.005,0.006-.178a0.106,0.106,0,0,1,.1.1,0.3,0.3,0,0,0,.252-0.317l0.021-.132,0.088,0.014,0.168,0.071a0.1,0.1,0,0,1,.105-0.095,1.035,1.035,0,0,1-.009.2,0.338,0.338,0,0,1-.282.358L465,89.072a0.194,0.194,0,0,1,.091-0.008,0.556,0.556,0,0,1,.19.075,0.485,0.485,0,0,1,0-.156,1.5,1.5,0,0,1,.512-0.813l0-.269-0.091.008-0.1.342-0.165-.094a0.756,0.756,0,0,0-.339-0.41l-0.022,0,0-.178,0.183-.016,0.014-.087-0.108-.174a0.5,0.5,0,0,0,.356-0.257l0-.022,0.006-.177-0.179-.005,0.014-.088,0.155-.266-0.086-.169a0.274,0.274,0,0,1,.273-0.158l-0.008-.091-0.179-.006,0.006-.177,0.178,0.005-0.181-.274,0-.156,0.169,0.071,0.009-.624a0.3,0.3,0,0,0,.337-0.282,0.615,0.615,0,0,0,0-.156l-0.043-.006a0.722,0.722,0,0,1-.213-0.078,1.736,1.736,0,0,1,.017-0.243,0.187,0.187,0,0,1,.144-0.2L465.98,84.2l0.179,0.006-0.011-.359,0.095-.455-0.022,0a0.058,0.058,0,0,1-.055-0.076,0.515,0.515,0,0,0,.092-0.3q0.035-.218.072-0.592l-0.022,0a0.059,0.059,0,0,1-.056-0.075l0-.022a0.328,0.328,0,0,1,.25-0.162,0.514,0.514,0,0,1,.1.373l0.091-.008-0.032-.362q0.01-.066-0.1-0.083l-0.066-.01-0.01-.783,0-.022a0.18,0.18,0,0,1,.182-0.151l-0.082-.191,0-.268,0.088,0.013a5.671,5.671,0,0,1,.257,1.493l-0.055.349,0.022,0a0.077,0.077,0,0,1,.055.076l-0.182.44a0.961,0.961,0,0,1,.1.373l0.179,0.006a0.4,0.4,0,0,1,0-.134,0.142,0.142,0,0,1,.156-0.132,3.5,3.5,0,0,0-.071-0.547,0.726,0.726,0,0,1,0-.156,0.434,0.434,0,0,1,.076-0.188,0.6,0.6,0,0,1-.08-0.348l-0.021-.718,0.113-.429-0.362-.972-0.008-.091,0.088,0.014a4.6,4.6,0,0,1,.521,1.668l0.179,0.006a4.847,4.847,0,0,0-.087-0.728q-1.129-2.366-2.072-2.515l-0.132-.021-0.193.081a0.48,0.48,0,0,0-.068-0.279,2.276,2.276,0,0,1-1.184-.61,0.792,0.792,0,0,0-.784.547,0.489,0.489,0,0,1,.083.325,0.711,0.711,0,0,0-.265.115,3.253,3.253,0,0,1,1.234,2.562,13.1,13.1,0,0,1-.112,1.412,0.887,0.887,0,0,1-.135.426l-0.022,0a0.516,0.516,0,0,1-.237-0.35,0.958,0.958,0,0,1-.375.1l0.086,0.171-0.011.065a0.161,0.161,0,0,1-.156.132,0.943,0.943,0,0,0-.1-0.373,0.078,0.078,0,0,0,.1-0.074l-0.008-.091-0.088-.014a0.368,0.368,0,0,1-.336-0.432l-0.179-.006-0.2.1,0.014-.088a0.079,0.079,0,0,0-.1.074l-0.36-.28-0.251.027c-0.149-.008-0.243.111-0.282,0.358l-0.165-.093-0.088-.014a10.806,10.806,0,0,0-2.319,3.278,19.947,19.947,0,0,1-2.2,3.273,0.058,0.058,0,0,0,.055.075l0.022,0a7.189,7.189,0,0,0-1.069,1.776A45.18,45.18,0,0,0,452.847,96.413Zm1.508-1.148-0.179-.006,0.092-.432,0.178,0.005Zm0.188-.618-0.016-.181,0.088,0.014,0.019,0.159Zm0.336,0.432-0.088-.014,0.006-.178,0.088,0.014Zm0.267-1.678-0.179-.006,0-.022a0.18,0.18,0,0,1,.182-0.15Zm0.1-.342,0.006-.178,0.069-.011,0.016,0.181Zm8.1,5.584-0.007.044-0.179-.006,0.006-.178a0.133,0.133,0,0,0,.153-0.11l0.01-.066,0.088,0.014,0.008,0.091A0.732,0.732,0,0,0,463.348,98.643Zm1.215-4.814,0.091-.008L464.648,94l-0.088-.014ZM466.33,82a0.655,0.655,0,0,0,0,.156l-0.091.008,0-.447,0.165,0.093A0.427,0.427,0,0,0,466.33,82Zm-0.013-.628-0.088-.014,0-.269,0.088,0.014Zm-0.257-1.493,0.043,0.007a0.152,0.152,0,0,1,.13.177l-0.02.265-0.066-.011a0.8,0.8,0,0,0-.093-0.26Zm-0.623-1.594,0.087,0.014,0,0.156-0.091.008Zm0.163,5.477a0.508,0.508,0,0,0-.071.168,0.191,0.191,0,0,0,.008.091l-0.091.008-0.025-.272ZM461.641,96.23a0.575,0.575,0,0,1-.534.252l-0.091.008a0.851,0.851,0,0,1,.53-0.364l0.091-.007,0.008,0.09Zm0.178,1.145-0.01-.359,0.091-.008,0.01,0.359Zm-0.078-.638-0.008-.091,0.178,0.006,0.008,0.091Zm0.429-3.976,0.088,0.013,0,0.268-0.088-.014Zm0.549,3.191-0.019.265-0.07.436a0.078,0.078,0,0,1,.074.1,0.549,0.549,0,0,0-.053.192c-0.016.1-.031,0.242-0.044,0.418l-0.087-.014,0.013-.512-0.178-.006-0.012.356-0.088-.013-0.065-.435a2.334,2.334,0,0,1,.026-0.309,0.55,0.55,0,0,1,.324-0.486Zm-0.2-3.271,0.087,0.014,0,0.268-0.088-.014Zm0.273-.873-0.088-.014,0.006-.178,0.088,0.014Zm0.1-.342-0.01.066-0.182.016,0.014-.087Zm0.515-5.929-0.178-.006,0-.022a0.18,0.18,0,0,1,.181-0.15Zm0.8,3.342-0.091.008,0.012-.356,0.088,0.014Zm0.718-1.407-0.008-.09,0.179,0.006,0.008,0.09Zm0.165-3.727,0.179,0.006a0.563,0.563,0,0,0-.082.233,1.045,1.045,0,0,0-.009.2l-0.091.008Zm-0.155.981,0.157,0,0,0.269-0.179-.006Zm-0.29,2.39,0.091-.008a2.5,2.5,0,0,1,.437-1.048,0.462,0.462,0,0,0-.319-0.541l-0.044-.007,0.012-.356a1.08,1.08,0,0,0,.437-0.065l0.014,0.338-0.191-.075,0.195,0.612-0.025.443a0.2,0.2,0,0,0-.225.143l-0.007.044,0.06,0.613a0.478,0.478,0,0,0-.258.071,0.087,0.087,0,0,0-.078-0.079l-0.109-.018a0.443,0.443,0,0,1,.012.2,0.39,0.39,0,0,1-.071.168l0.159,0.271-0.344-.1,0.008-.334a5.79,5.79,0,0,0,.158-0.712,7.475,7.475,0,0,0,.084-0.814l0.092-.008a0.889,0.889,0,0,0,.084.46c-0.059-.009-0.107.11-0.147,0.356a3.239,3.239,0,0,0-.033.352Zm0.084-3.361,0,0.268-0.092.008,0-.268Zm-0.257.63,0.157,0,0.008,0.091-0.179-.006Zm0.163,0.248,0.03,0.094-0.1.186,0.091-.008-0.007.044a0.152,0.152,0,0,1-.178.128l-0.091.008A0.447,0.447,0,0,1,464.63,84.634Zm-0.507,1.775-0.107-.173a0.584,0.584,0,0,1,.267-0.271,2.86,2.86,0,0,1-.035.508,3.27,3.27,0,0,1-.206.727,0.078,0.078,0,0,1,.074.1l0,0.269a0.945,0.945,0,0,1-.341.594l-0.092.008,0.07-.436a0.122,0.122,0,0,0-.121-0.086l-0.066-.011ZM463.48,85.08l0.008,0.091-0.27,0-0.008-.091Zm-0.425.268,0.091-.008,0,0.178-0.092.008Zm0.168,0.361,0,0.156-0.043-.006a0.161,0.161,0,0,1-.133-0.155Zm-0.086.254a0.728,0.728,0,0,0-.078.212l-0.007.044-0.091.008,0-.268Zm-0.262-.331,0.1-.03-0.006.178-0.095.029Zm-0.1.342-0.01.065a0.362,0.362,0,0,1-.264.384l-0.065-.011-0.008-.091A0.605,0.605,0,0,1,462.776,85.975Zm-1.413,2.1a0.18,0.18,0,0,1,.181-0.15l0.092-.008-0.006.178-0.27,0ZM461.45,88.8l0.008,0.091-0.292.423,0.1,0.2,0.008,0.091L461.1,89.6l0.014-.087Q461.227,88.793,461.45,88.8Zm-0.438.065a0.181,0.181,0,0,1,.182-0.15l-0.021.131a0.152,0.152,0,0,1-.178.129Zm-0.09.991-0.005.178-0.088-.014,0.006-.177Zm-0.173-.184-0.014.087-0.087-.014,0.008-.334,0.182-.016A0.9,0.9,0,0,0,460.749,89.678Zm-0.114-3.1a0.18,0.18,0,0,1,.181-0.151l0.008,0.091,0,0.022a0.18,0.18,0,0,1-.181.15l-0.008-.091Zm-0.156,3.1,0.088,0.014,0,0.156-0.092.008Zm0.163,0.249,0,0.022a0.086,0.086,0,0,1-.079.077,0.8,0.8,0,0,0,.093.26l0.008,0.091a0.507,0.507,0,0,0-.168-0.071,0.189,0.189,0,0,0-.091.008l-0.033-.363Zm-0.7.717a0.477,0.477,0,0,0,.258-0.071l-0.006.178,0.28-.2,0,0.268-0.007.044a0.174,0.174,0,0,1-.159.154l-0.091.008-0.017-.181a0.078,0.078,0,0,0-.1.073l-0.022,0a0.2,0.2,0,0,1-.151-0.18Zm-0.27-2.545,0.091-.008-0.006.178-0.091.008Zm-0.169.354,0.091-.008-0.028.175a0.168,0.168,0,0,1-.162.175Zm-0.183,3.278a1.191,1.191,0,0,0,.443-0.668l0.01-.066,0.267,0.02-0.094.164,0,0.178,0.178,0.006-0.254.607-0.091.008-0.008-.091a1.241,1.241,0,0,0,.06-0.236l0.031-.2-0.272.159,0.107,0.173a0.688,0.688,0,0,1-.372.366,1.052,1.052,0,0,1,.11-0.273Zm0.17,0.764,0.006-.178,0.088,0.014-0.006.178Zm0.017,0.181-0.006.178-0.179-.005,0-.178Zm-0.616.194,0.092-.008-0.006.178-0.092.008Zm-0.042.976a0.737,0.737,0,0,1,.212.078l0.276-.18a5.574,5.574,0,0,1,.7-1.588q2.349-4.322,2.377-4.5l0.006-.177-0.347.348-0.088-.014,0.168-.354-0.085-.169a1.244,1.244,0,0,1-.444.533l-0.016-.181a4.405,4.405,0,0,0,.716-1.117l0-.022,0.091-.008,0.008,0.091-0.1.342,0.008,0.09a1.11,1.11,0,0,0,.446-0.689l0.274-.024-0.006.178,0.171-.084q-0.179.977-.992,3.977l-0.152.959a6.131,6.131,0,0,1-.535,2.239l-0.187-.1a0.142,0.142,0,0,0-.156.132,0.4,0.4,0,0,0,0,.134l-0.179-.006-0.016-.182a0.059,0.059,0,0,0-.076.055l0,0.022a8.273,8.273,0,0,0-2.222.545L458.691,94l0.094-.164Zm2.947-5.681,0.02-.265L462,87.907l-0.021.131A0.151,0.151,0,0,1,461.8,88.167Zm-3.274,5.049a0.722,0.722,0,0,0,.212.078L458.78,93.3a0.437,0.437,0,0,1-.26.361,0.874,0.874,0,0,1,.111-0.273Zm-0.328.932a0.164,0.164,0,0,1,.156-0.132l0.091-.008,0,0.269-0.27,0Zm-1.363-4.012,0.088,0.013,0,0.156-0.092.008Zm-0.211,1.329a0.15,0.15,0,0,1,.129.177l-0.014.087a0.719,0.719,0,0,0-.212-0.078l-0.044-.007,0.1-.186ZM456.39,90.8a0.2,0.2,0,0,1,.181-0.15l-0.005.178-0.179-.006Zm-0.008,1.183,0.024,0.272-0.088-.014-0.027-.25Zm-0.687.361-0.007.044a0.151,0.151,0,0,1-.178.129l-0.008-.091,0-.022a0.18,0.18,0,0,1,.181-0.15Zm9.3-1.936,0.021-.131-0.361.01-0.006.178,0.082,0.192-0.088-.014a0.161,0.161,0,0,0,.133.155l0.153,0.024-0.008-.09-0.082-.192A0.142,0.142,0,0,0,464.993,90.411Zm-0.213-.637-0.044-.006,0,0.268,0.2-.1A0.174,0.174,0,0,0,464.78,89.774Zm1.731-7.078,0.088,0.013,0-.178-0.087-.014Zm-0.192,1.064,0.179,0.006,0.012-.356-0.179-.006Zm-2.087,14.127-0.019.264,0.179,0.006,0.025-.443A0.174,0.174,0,0,0,464.232,97.888ZM466.42,82.7l-0.083.524,0.021,0a0.058,0.058,0,0,1,.056.075,0.131,0.131,0,0,0,.152-0.11l0.011-.066,0.019-.265A0.169,0.169,0,0,0,466.42,82.7Zm0.093,2.808L466.6,85.68a0.876,0.876,0,0,0-.243.677l-0.034.217,0.178,0.006,0.032-.2a0.988,0.988,0,0,1,.339-0.863l-0.088-.438Q466.63,85.06,466.513,85.511Zm-0.28,1.765a0.15,0.15,0,0,0,.177-0.128l0.007-.044,0.02-.264-0.091.007a0.842,0.842,0,0,1-.107.251Zm-2.888,13.086-0.27,0-0.165-.093a0.172,0.172,0,0,0-.185.172l0.082,0.191,0.171-.085,0.008,0.091,0.27,0,0.437,0.783a0.1,0.1,0,0,0,.105-0.095l0.044,0.007a0.15,0.15,0,0,1,.129.177l0.249-.006,0.014-.087-0.183.016v-0.715a0.2,0.2,0,0,0-.191.216l-0.007.043-0.264-.175,0.019-.265A0.367,0.367,0,0,1,463.345,100.362Zm0.36,0.7,0.088,0.014-0.006.178-0.088-.015Zm2.98-16.356,0.179,0.005,0-.268,0.094-.879-0.178-.006C466.72,84.3,466.69,84.683,466.685,84.711Zm-0.618,2.763a0.154,0.154,0,0,0,.11.152l0.066,0.01-0.01-.359A0.2,0.2,0,0,0,466.067,87.474Zm-2.1,12.092-0.006.178L464,99.75a0.728,0.728,0,0,1,.212.078l0.088,0.014,0.006-.178a1.237,1.237,0,0,1-.257-0.085Zm0.175,0.452,0.01,0.359,0.183-.015L464.3,100Zm-0.55-9.269-0.1-.195a1.17,1.17,0,0,0-.263.807l-0.083.523a0.67,0.67,0,0,0,.361-0.435l-0.1-.195a1.726,1.726,0,0,0,.186-0.462Zm2.2-5.062,0.006-.178-0.091.008,0.016,0.181Zm-3.353,12.476,0.017,0.181,0.091-.008-0.016-.181Zm3.671-12.918a0.15,0.15,0,0,1-.13-0.176l-0.178-.006,0.008,0.091,0.082,0.192,0.27,0-0.008-.091ZM465.911,89.3a0.764,0.764,0,0,1,.009-0.2,2.573,2.573,0,0,1,.149-0.513l-0.186.038-0.01.065c-0.014.087-.063,0.3-0.145,0.625Zm14.947,15.415-0.008-.09-0.157,0-0.007.045a0.188,0.188,0,0,1-.188.194l0.063,0.166A0.411,0.411,0,0,0,480.858,104.719Zm13.636-23.864-0.012-.069a0.17,0.17,0,0,0-.148-0.2l-0.019.265Zm-0.062.526,0.028-.174-0.087-.014-0.028.174Zm-16.219,22.164-0.028.174,0.179,0.006,0-.156Zm-8.362-2.965a4.732,4.732,0,0,1-.235.767l0.179,0.006,0.245-.833-0.179-.006Zm24.42-20.163-0.028.174,0.091-.008,0-.156Zm-16.237,23.122-0.044-.431-0.175-.028a0.9,0.9,0,0,1,.043.432Zm-7.771-3.432-0.012-.068-0.332-.03-0.016.243,0.153,0.024A0.18,0.18,0,0,0,470.263,100.107Zm-2.973,1.455-0.179,0,0,0.156,0.154,0.024ZM466.8,105.2l-0.179-.006-0.028.174A0.181,0.181,0,0,0,466.8,105.2Zm0.025-4.264-0.175-.027-0.02.265,0.179,0.005Zm0.814-.453,0.01-.065a1.218,1.218,0,0,0-.434.892l0.179,0.007Q467.628,100.565,467.642,100.478Zm-0.523,2.018a0.478,0.478,0,0,0-.072-0.257,0.163,0.163,0,0,0-.181.15l-0.044.418A0.411,0.411,0,0,0,467.119,102.5Zm0.867-4.891,0.153,0.024,0.028-.174-0.179-.006Zm-0.669,1.66,0.179,0.006,0.022-.421-0.087-.014Zm0.539-3.11a0.148,0.148,0,0,0,.152.18l0.087,0.013a0.174,0.174,0,0,0,.185-0.172l0-.156a0.17,0.17,0,0,0-.147-0.2l-0.034.353a0.078,0.078,0,0,1-.074-0.1Zm-1.335,3.454a0.49,0.49,0,0,0,.124.355,0.27,0.27,0,0,0-.349.214l-0.017.108,0.179,0.006,0-.156,0.354,0.034,0.034-.352,0.007-.044a6.492,6.492,0,0,1,.424-1.118l-0.087-.014A1.238,1.238,0,0,0,466.521,99.61Zm0.241,0.038-0.087-.014,0.027-.174,0.088,0.014Zm1.554-3.979,0.161,0.115,0.116-.161a0.2,0.2,0,0,0-.17-0.206l-0.157,0a0.171,0.171,0,0,0-.2.147l-0.02.265,0.092-.008,0.024-.152Zm-1.048,4.192,0.014-.087-0.176-.028-0.127.517,0.157,0Zm17.464-17.545,0.065,0.01,0.028-.174-0.088-.014ZM467.027,98.55l0.354,0.033,0.11-.407a0.3,0.3,0,0,0-.239-0.194l-0.088-.014a0.1,0.1,0,0,0,.1.1l-0.112.139L467.23,98.4l-0.176-.027Zm3.656,1.6,0.014-.087-0.179,0-0.016.243A0.148,0.148,0,0,0,470.683,100.151Zm0.507-1.775-0.031.2c0.163,0.011.3-.235,0.409-0.74L471.4,97.74l-0.087-.014-0.114.43,0.064,0.167A0.058,0.058,0,0,0,471.19,98.376Zm-3.789-.907,0.153,0.024,0.028-.174A0.161,0.161,0,0,0,467.4,97.469Zm-0.048.44,0.245,0.016,0.028-.174-0.267-.02Zm-1.056,7.072-0.088-.014a0.683,0.683,0,0,1-.107.252l-0.014.087,0.176,0.028Zm0.1-.095c0.033-.2.118-0.555,0.258-1.054l-0.264-.042-0.033.352,0.085,0.171a0.16,0.16,0,0,0-.181.149l0.06,0.188a0.079,0.079,0,0,0-.1.074l0.008,0.091a0.146,0.146,0,0,0,.151.18Zm1.438-7.639-0.057-.344-0.267-.019-0.006.177a0.161,0.161,0,0,0,.151.18Zm-1.167,4.375,0.018-.109-0.179-.006a0.688,0.688,0,0,1-.1.23l-0.014.087A0.373,0.373,0,0,0,466.673,101.622Zm14.673-8.466,0.018-.109-0.088-.013-0.171.085a0.058,0.058,0,0,0,.055.076l0.022,0-0.093.164-0.028.174A0.375,0.375,0,0,0,481.346,93.156Zm6.771-13.191,0.157,0a0.162,0.162,0,0,0-.151-0.18Zm2.915-1.8L491,78.341l0.088,0.013,0.006-.178Zm-4.006,1.449,0.014-.087a0.426,0.426,0,0,0-.283.224l-0.014.087A0.42,0.42,0,0,0,487.026,79.615Zm-8.056,15.2-0.167.063a0.127,0.127,0,0,0,.107.173l0.044,0.007a0.079,0.079,0,0,1-.1.074l0.066,0.434,0.245,0.016,0.01-.065L479,95.491l0.131-.4Zm8.988-15.122,0.027-.175-0.179-.005a1.675,1.675,0,0,0-.659.611l-0.013.088A2.38,2.38,0,0,0,487.958,79.695Zm-1.385,1.079,0.179,0.005,0-.156A0.161,0.161,0,0,0,486.573,80.773Zm0.683,0.085,0.017-.109a0.425,0.425,0,0,0-.283.223l0.088,0.014A0.152,0.152,0,0,0,487.256,80.858ZM475.178,94.914l0.02-.265-0.167.063A0.155,0.155,0,0,0,475.178,94.914Zm5.531-1.142a0.587,0.587,0,0,1,.108-0.251l-0.176-.027a0.683,0.683,0,0,1-.107.251l-0.014.087,0.175,0.028Zm5.77-11.985,0.028-.174-0.091.008,0,0.156Zm-5.915,11.627-0.165-.093a1.04,1.04,0,0,1-.22.39l-0.019.265,0.088,0.014A1.7,1.7,0,0,1,480.564,93.414Zm4.653-9.771-0.008-.09-0.157,0-0.029.33,0.065,0.011A0.674,0.674,0,0,1,485.217,83.643Zm-16.03,8.946a0.1,0.1,0,0,0,.1.1,6.326,6.326,0,0,1-.414.628l0.082,0.192a1.9,1.9,0,0,0-.219.524l-0.006.044-0.165-.093a0.531,0.531,0,0,0,.049.253,8.208,8.208,0,0,0-.338,1l0.175,0.028q0.725-1.584,1.089-1.617l-0.044.418-0.088-.014q-0.168.354-.767,2l0.091-.008a0.961,0.961,0,0,0,.384-0.722l0.028-.174,0.179,0.005-0.011.066a1.861,1.861,0,0,1-.311.688c-0.007.044,0.04,0.073,0.143,0.09l0.088,0.014,0.008,0.091c-0.208-.017-0.335.126-0.383,0.431l-0.021.13-0.176-.028-0.239-.194-0.034.218a0.851,0.851,0,0,1-.186.463l-0.01.065,0.087,0.014a1.392,1.392,0,0,1,.541-0.3q-0.014.088,0.162,0.115a1.3,1.3,0,0,0-.313.554l0.176,0.028-0.031.2a0.151,0.151,0,0,1-.178.128,0.076,0.076,0,0,0,.055.076l0.022,0,0.008,0.091-0.022,0a0.467,0.467,0,0,1-.214-0.346l-0.363.3a0.078,0.078,0,0,0,.074.1,0.162,0.162,0,0,1-.181.151l0.137,0.267q-0.195.663-.483,0.639l-0.044.418c0.1,0.016.168-.07,0.2-0.26l0.011-.065L468,99.328l-0.024.153-0.2.26,0.012,0.069,0.153,0.024,0.028-.175,0.176,0.028a0.653,0.653,0,0,0,.035.341l0.193-.082-0.028.174a0.916,0.916,0,0,1-.483.639l-0.006.178a0.128,0.128,0,0,0,.107.173l0.132,0.021,0.006-.178,0.087,0.014-0.016.243,0.088,0.014,0.007-.044a0.22,0.22,0,0,1,.276-0.18l-0.031.2a0.153,0.153,0,0,1-.178.129,0.059,0.059,0,0,0,.055.076l0.022,0a1.915,1.915,0,0,0-.215.5l-0.087-.013,0.014-.088,0.093-.164-0.179-.005,0.014-.087,0.115-.161-0.434.043,0.017,0.606-0.154-.024-0.047.44,0.063,0.166,0.19-.06a0.6,0.6,0,0,1,.3-0.488q-0.161.867-.181,1l-0.014.087-0.333-.029a0.868,0.868,0,0,1,.108-0.252l0.01-.065-0.175-.028-0.028.174a0.094,0.094,0,0,1-.074-0.1,0.531,0.531,0,0,0-.288.4l0.038,0.609,0.332,0.03,0.014-.087-0.179-.006,0.02-.265a0.465,0.465,0,0,1,.374-0.231c0.058,0.009.078,0.071,0.06,0.188l0.179,0.005,0.057-.5a0.7,0.7,0,0,0,.194-0.372l0.007-.044,0.176,0.028-0.021.13a4.952,4.952,0,0,1-.433,1.027,0.151,0.151,0,0,0,.129.177l0.022,0,0.223-.412a0.1,0.1,0,0,1,.074.1,0.161,0.161,0,0,0,.181-0.15l0.014-.087-0.038-.609,0.088,0.014,0.019-.266A10.652,10.652,0,0,0,469.831,100l-0.063-.167a0.172,0.172,0,0,0,.184-0.172l0.327,0.208,0.088,0.014,0-.178-0.178-.006,0.027-.174c0.058,0.009.085,0.035,0.078,0.079a0.442,0.442,0,0,0,.292-0.423l0.02-.131L470.348,99l-0.171.085L470.169,99a0.17,0.17,0,0,1,.2-0.147l0.165,0.093,0-.022a0.059,0.059,0,0,1,.076-0.055l-0.063-.166-0.008-.091,0.091-.008,0.03-.33,0.165,0.093a0.551,0.551,0,0,0-.05-0.254,6.524,6.524,0,0,0,.41-0.74l0-.021a0.909,0.909,0,0,1,.453-0.443l0.014-.088-0.064-.166,0.069-.012,0.162,0.115a2.948,2.948,0,0,0-.318.732l-0.006.178,0.157,0a0.309,0.309,0,0,1,.3-0.311,1.225,1.225,0,0,0,.522.819l0,0.022a0.06,0.06,0,0,1-.077.056,0.415,0.415,0,0,0,.341.544l0.044,0.007a1.606,1.606,0,0,0,.843.915l0.022,0-0.115.161-0.02.265,0.4,0.465L474,100.627a0.8,0.8,0,0,1,.643.481,0.1,0.1,0,0,0,.083-0.1l0.162,0.114-0.094.164-0.014.087,0.132,0.021a0.5,0.5,0,0,1,.525.373l0.434-.043,0.41,0.109,0.189-.06,0.467,0.453,0.6,0.071a0.515,0.515,0,0,0,.388.53c0.044,0.007.074-.041,0.09-0.142l0.014-.087,0.091-.009c-0.043.456,0,.692,0.112,0.71l0.091-.007,0.03-.331,0.066,0.011,0.065,0.435a0.643,0.643,0,0,1,.273.691l-0.006.177,0.066,0.011a1.26,1.26,0,0,0,.47.721l0.157,0,0.038-.239,0.066,0.01,0,0.156-0.093.164a0.377,0.377,0,0,0,.382.283l0.109,0.018,0.017-.244,0.165,0.093,0.244,0.016a0.529,0.529,0,0,0-.049-0.253l0.093-.164-0.088-.863,0.066,0.01a0.633,0.633,0,0,0,.287.179l0.043,0.007,0.008,0.091-0.266-.02-0.006.178a0.147,0.147,0,0,0,.151.18,0.151,0.151,0,0,0,.178-0.129l0-.021,0.064-.683-0.189.06-0.41-.109,0.014-.088,0.088,0.014,0.164,0.093,0.347-.057,0.03-.33-0.082-.192c0.058,0.009.1-.044,0.115-0.161l0.066,0.011-0.02.265,0.091-.008a0.6,0.6,0,0,1,.275-0.315l0.014-.087-0.245-.016-0.189.06,0.058-.5,0.332,0.03a4.6,4.6,0,0,1,.7-2.146l-0.219-.459,0.013-.088,0.176,0.028,0.006-.178-0.157,0,0-.022a0.18,0.18,0,0,1,.181-0.15l-0.085-.169,0.014-.088c0.163,0.011.251-.027,0.265-0.115l0.018-.109a0.162,0.162,0,0,0-.152-0.18l0-.022a0.18,0.18,0,0,1,.181-0.15l-0.085-.169a2.066,2.066,0,0,0,.443-1.093,2.686,2.686,0,0,0,.03-0.33,0.549,0.549,0,0,0-.05-0.253,0.492,0.492,0,0,0,.376-0.388l-0.081-.192,0.087,0.014a8.22,8.22,0,0,1,.685-1.9l0.014-.087-0.044-.431a2.71,2.71,0,0,0,.728-1.472,0.478,0.478,0,0,0-.072-0.257,0.1,0.1,0,0,0,.084-0.1l0.01-.065,0.022,0a0.086,0.086,0,0,1,.077.079l0.168-.063a0.48,0.48,0,0,0-.072-0.257,0.847,0.847,0,0,1,.107-0.251l-0.153-.024a0.718,0.718,0,0,0,.2-0.415l0.01-.066,0.165,0.093,0.168-.063a0.171,0.171,0,0,0-.148-0.2l0.007-.044a0.855,0.855,0,0,1,.4-0.518l-0.012-.069-0.153-.024,0-.022a0.171,0.171,0,0,1,.178-0.129,0.1,0.1,0,0,0-.074-0.1,1.829,1.829,0,0,0,.3-0.6l0.007-.044-0.058-.345,0.022,0a0.058,0.058,0,0,1,.055.075,7.1,7.1,0,0,0,.83-1.545l-0.088-.014,0.9-1.445-0.06-.188a5.473,5.473,0,0,0,.866-1.2,13.228,13.228,0,0,1,3.512-3.716,1.506,1.506,0,0,0,.9-0.44l0.42,0.044,0.165,0.093,0,0.022a0.087,0.087,0,0,1-.079.078L493.009,81l0.088,0.013a0.655,0.655,0,0,1,.619.634l0.189-.059a0.078,0.078,0,0,0-.074-0.1l0.016-.243,0.091-.008-0.019.264a0.528,0.528,0,0,0,.288-0.4,2.858,2.858,0,0,1-.109-0.866l-1.822-1.693a0.162,0.162,0,0,0-.181.15l-0.585-.137a1.32,1.32,0,0,0-.975.339c-0.059-.009-0.084-0.036-0.078-0.079a0.537,0.537,0,0,0-.549.2,0.078,0.078,0,0,1-.074-0.1,0.058,0.058,0,0,0-.076.055l0,0.022L489.59,78.9l-0.19.059a0.059,0.059,0,0,0-.055-0.076l-0.022,0a0.655,0.655,0,0,1-.1.229l0.263,0.041-0.024.153a0.325,0.325,0,0,0-.374.232l-0.143-.09,0.173-.241c-0.1-.016-0.148-0.105-0.137-0.267l-0.176-.028-0.007.044a0.512,0.512,0,0,1-.1.208l0.179,0.005-0.034.352-0.087-.014,0.027-.174a0.677,0.677,0,0,0-.387.319l0.179,0.006-0.028.174-0.157,0-0.011.065,0.06,0.188a1.428,1.428,0,0,1-.557.538,0.058,0.058,0,0,0-.055-0.076l-0.022,0c0.026,0.3.044,0.476,0.052,0.523a1.282,1.282,0,0,0,.637-0.615l0-.022,0.179,0.006a0.885,0.885,0,0,0,.044.431,1.739,1.739,0,0,0-.685,1.054l-0.013.087q-0.429-.135-0.4-0.287a0.148,0.148,0,0,0-.182.15l0.06,0.188-0.167.063-0.02.265,0.07-.012a0.547,0.547,0,0,1,.376-0.388l0,0.021a1.482,1.482,0,0,1-.472.708q-0.115.585-.491,0.548l-0.014.087,0.085,0.17a0.529,0.529,0,0,0-.292.423l-0.01.066-0.165-.093a0.824,0.824,0,0,1-.108.251l0.088,0.014a0.772,0.772,0,0,1-.615.194l0.006-.178,0.3-.311,0.006-.178a0.736,0.736,0,0,0-.393.5l-0.162-.115a0.575,0.575,0,0,0,.107-0.252l0.011-.065a4.322,4.322,0,0,0,.981-1.365l0-.022,0.176,0.028a0.851,0.851,0,0,1-.108.251l-0.013.087,0.179,0.005,0.006-.043a0.893,0.893,0,0,1,.194-0.372l0.014-.087-0.193.081-0.087-.014,0.014-.088a0.338,0.338,0,0,1,.282-0.224,2.623,2.623,0,0,1,.781-0.95l-0.176-.028,0.094-.163,0.013-.088-0.091.008-0.167.063a4.4,4.4,0,0,1-.687.785l0.008,0.091L487,81.756l0.011,0.069-0.091.008-0.162-.115-0.013.087a1.2,1.2,0,0,1-.77.884l-0.014.087,0.085,0.17a2.382,2.382,0,0,0-.688,1.076l-0.01.065a0.1,0.1,0,0,1-.1-0.1,1.92,1.92,0,0,0-.583.98l-0.013.088c0.058,0.008.084,0.035,0.077,0.078q-0.565.6-.854,0.849l0.024-.152-0.091.009-0.024.152L483.857,86a0.612,0.612,0,0,1-.253.161l-0.014.087,0.179,0.006-0.006.177a0.078,0.078,0,0,1-.074-0.1,0.372,0.372,0,0,0-.279.2l-0.031.2,0.266,0.02a0.078,0.078,0,0,1-.1.073,4.913,4.913,0,0,1-.352,1.084l-0.157,0,0.093-.164,0.02-.265-0.179-.006-0.11.408a0.079,0.079,0,0,0,.074.1l-0.034.218q-0.087.545-.284,0.514l0.044,0.431-0.014.087a0.6,0.6,0,0,0-.524.186l-0.018.109,0.267,0.02-0.02.265A0.707,0.707,0,0,1,482.1,89.7l-0.346.057-0.014.087,0.065,0.011a0.487,0.487,0,0,1,.4.62l0.168-.063-0.11.408,0.06,0.188a0.161,0.161,0,0,0-.181.15l-0.014.087,0.354,0.034-0.01.065a1.417,1.417,0,0,0-.4.563l-0.022,0a0.5,0.5,0,0,1-.193-0.343l0.088,0.014-0.082-.192,0.267,0.02,0-.156-0.406-.13c-0.164-.011-0.253.035-0.269,0.136l-0.028.174,0.189-.059a0.5,0.5,0,0,0,.058.344l-0.237.5a0.478,0.478,0,0,1,.072.257,0.586,0.586,0,0,0,.474-0.44l0-.021L482.07,92c-0.029.279,0.007,0.426,0.11,0.442l0.021,0a0.925,0.925,0,0,0-.4.519L481.8,93l0.266,0.019a0.732,0.732,0,0,0-.117.317l-0.018.109-0.088-.014q0.03-.331-0.123-0.355l-0.088-.014-0.014.087,0.06,0.188a0.658,0.658,0,0,0-.2.549l-0.032.2-0.087-.014-0.239-.194-0.245-.016-0.041.261-0.088-.013a0.179,0.179,0,0,1-.151-0.18,0.162,0.162,0,0,0-.181.15l-0.03.33,0.175,0.027-0.014.088-0.088-.014-0.165-.093a2.524,2.524,0,0,1-.026.309q-0.084.524-.306,0.511a0.15,0.15,0,0,0,.129.176l0.132,0.021,0.01-.065a2.72,2.72,0,0,1,.21-0.615l0.162,0.114q-0.187.753-.406,0.718l-0.014.087a0.15,0.15,0,0,0,.129.177l0.044,0.007a0.6,0.6,0,0,1-.388.319L480.1,95.6a0.837,0.837,0,0,1-.252-0.107l0.027-.174a1.333,1.333,0,0,1,.319-0.732l0.014-.087-0.263-.041-0.025.153q-0.109.7-.311,0.689l0.019-.265-0.17.085-0.088-.014,0.007-.044a0.307,0.307,0,0,1,.381-0.276l0.008-.334-0.157,0-0.016.243-0.088-.014-0.012-.069,0.27-.851-0.426-.29-0.027.174a3.049,3.049,0,0,1-.324.91l0.175,0.027,0.02-.264,0.178,0.005a0.68,0.68,0,0,1-.107.251l0.06,0.188,0.008,0.091a0.1,0.1,0,0,1-.1-0.1l-0.168.063a1.355,1.355,0,0,1,.189.788l0.088,0.014a0.187,0.187,0,0,0,.188-0.194l0.007-.044,0.157,0-0.093.164-0.014.088,0.082,0.191c-0.1-.016-0.171.085-0.206,0.3l-0.014.087,0,0.178c0.133,0.006.24-.237,0.318-0.731l0.179,0.005-0.044.418-0.007.044a0.151,0.151,0,0,1-.177.128,0.463,0.463,0,0,0,.071.257,0.4,0.4,0,0,0-.2.282l-0.007.043-0.088-.014,0.017-.243-0.088-.014-0.167.063a0.059,0.059,0,0,0-.056-0.076l-0.2-.031,0.082,0.191-0.011.065-0.195.238a0.586,0.586,0,0,0,.343-0.036l0.091-.008a0.892,0.892,0,0,0-.121.338l-0.088-.013,0.014-.087a0.29,0.29,0,0,0-.374.232l-0.157,0,0.02-.265a0.854,0.854,0,0,1,.39-0.474L478.9,96.5l0.01-.066,0.094-.164,0.165,0.093,0.014-.087-0.137-.268-0.19.06,0.024-.152,0.347-.057-0.082-.191a0.2,0.2,0,0,0-.185.172,0.079,0.079,0,0,1-.074-0.1,0.163,0.163,0,0,0-.181.151l0.06,0.188a0.558,0.558,0,0,1-.255.049l-0.014.087,0.176,0.027-0.011.066-0.091.008-0.162-.115a5.592,5.592,0,0,1-.489,1.666l0.082,0.191-0.088-.014a0.476,0.476,0,0,0,.072.257,0.586,0.586,0,0,0-.108.251l-0.013.087,0.06,0.188,0.192-.081-0.027.174a0.479,0.479,0,0,0-.349.213l0.211,0.369-0.006.178-0.175-.028-0.014.087,0.082,0.192a1.9,1.9,0,0,1-.9.261l-0.6-.049a8.477,8.477,0,0,1-1.045-3.605,0.644,0.644,0,0,1-.311-0.45c0.163,0.011.253-.035,0.269-0.136l0.018-.11L475.1,95.84l-0.006.178L475.005,96l-0.044-.431,0.02-.265,0.162,0.114,0.091-.008,0.016-.243-0.428-.135a0.18,0.18,0,0,1,.181-0.15l-0.064-.166,0.034-.353,0.088,0.014-0.028.175,0.179,0.005a1.263,1.263,0,0,0-.116-0.688,0.079,0.079,0,0,0,.1-0.073l0.034-.353-0.044-.007a0.528,0.528,0,0,1-.209-0.1l0.01-.066a0.6,0.6,0,0,1,.107-0.251l-0.038-.609,0.011-.065c0.027-.175.094-0.261,0.2-0.259l0.017-.244a0.684,0.684,0,0,1,.107-0.251l-0.088-.014,0.094-.163,0.014-.088-0.179-.006,0,0.021a0.438,0.438,0,0,1-.359.279,0.85,0.85,0,0,1,.108-0.251l-0.064-.166q0.01-.066.124-0.495l-0.06-.188,0.153,0.024a1.017,1.017,0,0,0,.072.257l-0.094.163-0.014.088,0.091-.008c0.1,0.016.168-.063,0.195-0.237a0.077,0.077,0,0,1,.074.1,0.162,0.162,0,0,0,.182-0.15l0.047-.44a0.2,0.2,0,0,0-.173-0.184l-0.069.012-0.269.136-0.088-.014,0.01-.066a4.3,4.3,0,0,1,.113-0.428,1.4,1.4,0,0,0,.786-1.127l-0.175-.028-0.006.178-0.088-.014,0.035-.218c0.021-.131.065-0.362,0.133-0.695l-0.176-.028-0.162,1.025-0.088-.014,0.016-.243,0.251-1.01L475.9,87.7l0.087,0.014a0.855,0.855,0,0,1,.108-0.251l-0.064-.167a0.076,0.076,0,0,0,.076-0.055l0.018-.109a0.741,0.741,0,0,1-.146-0.358,1.4,1.4,0,0,1-.686-0.912c-0.1-.016-0.166.049-0.189,0.194L475.1,86.1l-0.087-.014-0.058-.344-0.153-.024a0.2,0.2,0,0,0-.192.216l-0.007.043-0.088-.014,0.07-.861-0.157,0-0.028.175-0.088-.014,0.014-.087a0.893,0.893,0,0,0,.121-0.338l-0.179-.006-0.016.244-0.091.008a0.157,0.157,0,0,0-.148-0.2l0.011-.065,0.093-.165a0.522,0.522,0,0,0-.209-0.1l-0.044-.007,0.094-.164,0.014-.087-0.176-.028-0.214.5-0.066-.011-0.008-.091,0.115-.16-0.091.008a0.148,0.148,0,0,0-.181.15,0.1,0.1,0,0,1-.1-0.1,0.56,0.56,0,0,0-.621.372,0.554,0.554,0,0,1-.393.5,21.5,21.5,0,0,1-1.74,4.017q-0.423,1.676-.734,1.649a0.584,0.584,0,0,0,.068.279A3.538,3.538,0,0,1,469.187,92.589Zm-0.638,4.3-0.066-.011,0-.155,0.092-.008Zm23.779-16.978,0.091-.008-0.027.174-0.066-.01Zm-1.082.59,0.091-.008-0.028.174-0.066-.01Zm-2.968,3.4-0.179-.005,0.028-.174A0.147,0.147,0,0,1,488.278,83.9Zm2.03-2.451-0.175-.028,0.006-.177,0.175,0.027Zm0.13-.672,0.091-.008-0.006.178-0.088-.014Zm-0.415-1.071-0.013.088-0.154-.024-0.008-.091Zm-0.36.145,0,0.156L489.482,80A0.161,0.161,0,0,1,489.663,79.851Zm-0.772,1.04-0.06-.188,0-.156,0.266,0.019-0.223.412-0.087-.014A0.078,0.078,0,0,1,488.891,80.891Zm1.366,0.036,0.091-.009a9.946,9.946,0,0,0-1.132,1.185l-0.014.087a0.418,0.418,0,0,0,.282-0.224l0.179,0.006-0.014.087-0.087-.014a2.463,2.463,0,0,1-1.023.778A6.015,6.015,0,0,1,490.257,80.927Zm-1.865.846a0.179,0.179,0,0,1,.181-0.15l-0.028.174-0.157,0Zm-0.207.168,0.091-.008-0.006.177-0.087-.013Zm-0.159,1-0.02.265-0.175-.028,0.017-.109A0.172,0.172,0,0,1,488.026,82.945Zm-0.209-.524,0.157,0,0.008,0.09-0.179-.005Zm-0.456,2.163a4.209,4.209,0,0,1,1.085-1.595l-0.016.243,0.175,0.027-0.008-.09L488.533,83l0.044,0.007a0.127,0.127,0,0,1,.107.173l0,0.021a0.151,0.151,0,0,1-.178.129l-0.165-.093-0.5.726a0.876,0.876,0,0,0,.057.344l-0.013.087-0.088-.014,0.028-.175-0.088-.014-0.113.43-0.267-.02Zm0.142,0.379-0.025.153-0.021,0a0.17,0.17,0,0,1-.13-0.177Zm-0.484.639-0.088-.013,0.017-.243,0.091-.008Zm0.163-1.024,0.088,0.014-0.006.178-0.088-.014Zm0.044,0.431,0.008,0.091-0.116.161-0.157,0-0.008-.091a0.17,0.17,0,0,0,.2-0.147Zm-0.094-.685-0.041.261-0.162-.114A0.189,0.189,0,0,1,487.132,84.324ZM486.9,85.919l-0.022,0a0.15,0.15,0,0,1-.129-0.176l0.154,0.024Zm-0.041-.587-0.014.087-0.154-.024-0.007-.091Zm-0.478.461,0.088,0.014-0.006.178-0.088-.014Zm-4.133,4.088,0.088,0.014-0.025.152-0.091.009Zm0.219,0.458-0.175-.027a0.179,0.179,0,0,1,.181-0.15Zm-0.043,7.344-0.087-.014,0.006-.178,0.087,0.014Zm0.114-.429-0.088-.014,0.024-.152,0.091-.008Zm0.242-3.649-0.088-.014,0.016-.243,0.092-.008,0.161,0.115,0,0.022A0.151,0.151,0,0,1,482.781,93.6Zm0.247,1.982-0.088-.013,0.025-.153,0.091-.008Zm0.324-1.758a0.094,0.094,0,0,1-.074-0.1,0.48,0.48,0,0,0-.258.071l-0.088-.014a0.571,0.571,0,0,0,.107-0.251l0.014-.088a0.693,0.693,0,0,0,.327.208Zm-0.334-2.845,0.005-.178,0.088,0.014-0.024.152Zm0.718-2.256-0.014.087-0.176-.028,0.011-.065Zm-0.144-.515a0.193,0.193,0,0,1,.185-0.172l0.008,0.091a0.147,0.147,0,0,1-.181.15Zm-0.019,3.237a0.855,0.855,0,0,0-.108.251l-0.087-.014,0.016-.243Zm-0.184-.967-0.069.012,0.006-.178,0.088,0.013Zm-0.031,1.47-0.024.152-0.07.012,0.006-.178Zm0.129,2.3-0.069.012,0.006-.178,0.088,0.014ZM483.6,93l-0.066-.011,0.006-.177,0.088,0.013Zm0.083-.948-0.069.011,0.006-.178L483.7,91.9Zm0.11-1.257-0.066-.01-0.008-.091,0.115-.16,0.154,0.024L484,90.623A0.18,0.18,0,0,0,483.79,90.792Zm0-2.837,0.093-.165a0.181,0.181,0,0,1,.17.206l-0.01.066A0.86,0.86,0,0,0,483.791,87.955Zm0.183,1.816-0.019.265-0.088-.014,0.02-.265Zm0.09,1.98-0.175-.028,0.024-.153,0.157,0Zm0.124-.495-0.088-.014,0.02-.265,0.087,0.013Zm0.2-.415-0.154-.024-0.008-.09,0.176,0.027Zm-0.06-.188,0.01-.065,0.157,0,0.008,0.09Zm0.3-3.46a0.671,0.671,0,0,0-.1.229l-0.091.008,0.014-.087a0.841,0.841,0,0,0,.107-0.251l0.088,0.014Zm0.4-.562a0.573,0.573,0,0,0-.357.123l0.018-.109a0.509,0.509,0,0,1,.345-0.192Zm0.107-.251a0.514,0.514,0,0,0-.209-0.1l-0.043-.007a0.688,0.688,0,0,0,.209-0.324l0.069-.012Zm0.269,2.835-0.087-.013,0-.156,0.091-.008Zm0.237-1.772-0.179-.006,0.028-.174,0.157,0Zm0.327,0.207,0.091-.008-0.028.174L485.95,87.8Zm-0.37-2.627a0.172,0.172,0,0,1,.178-0.128l0.088,0.014a0.161,0.161,0,0,1-.181.15l-0.088-.013Zm-0.206-.68,0.087,0.014,0,0.156-0.091.008Zm-0.013,1.07,0.007-.044,0.179,0.006a0.1,0.1,0,0,1-.105.095,0.086,0.086,0,0,0,.077.079l-0.1.342-0.267-.019,0.028-.174A0.644,0.644,0,0,0,485.386,85.413Zm-0.455-.675,0.092-.008-0.006.178-0.088-.014Zm-0.591.89,0.179,0.006-0.014.087-0.175-.027Zm-0.086.97a1.338,1.338,0,0,1,.323-0.619l-0.179-.006,0.006-.178a1.225,1.225,0,0,0,.692-0.963l0.179,0a2.779,2.779,0,0,1-.409.74l-0.044.418a1.606,1.606,0,0,0-.575.647Zm-0.059.795,0.088,0.014-0.028.175-0.088-.014Zm-0.058-.343-0.091.008,0.006-.178,0.088,0.014Zm-0.569-.38,0.006-.178,0.088,0.014,0,0.156Zm0.454-.308,0.088,0.014-0.014.087q-0.325.776-.333,0.819l0.179,0.006,0-.156,0.044,0.007a0.151,0.151,0,0,1,.13.176,1.231,1.231,0,0,0-.492.548,0.856,0.856,0,0,1,.107-0.251l0.024-.152-0.189.06Q483.586,87.409,484.022,86.36Zm-0.641,1.485a0.874,0.874,0,0,0,.108-0.251l0.087,0.014-0.014.087a0.5,0.5,0,0,0-.1.186l-0.007.044-0.092.008Zm-0.225.568,0.176,0.028a0.157,0.157,0,0,1-.2.147Zm-0.184,1.021,0.228-.59,0.088,0.014-0.014.087-0.225.568-0.091.008Zm0.159,0.271-0.116.16a0.179,0.179,0,0,1-.151-0.18Zm-0.371.21a0.684,0.684,0,0,0,.25.128l-0.025.153a0.483,0.483,0,0,0-.258.071l-0.176-.028Zm-0.228-.259,0.091-.008L482.589,90l-0.087-.014Zm0.076,2.916-0.011.065-0.157,0-0.008-.091Zm-0.11,1.256-0.063-.167,0.244,0.016a0.173,0.173,0,0,1,.173.184c-0.221-.02-0.34.021-0.356,0.123l0,0.022-0.175-.027A0.179,0.179,0,0,1,482.5,93.829Zm-0.2-.7-0.006.178-0.175-.028A0.18,0.18,0,0,1,482.3,93.127Zm-0.1,3.157-0.006.178-0.087-.014,0-.178Zm-0.142-3.351-0.069.012,0.006-.178,0.087,0.014Zm-0.126.65a0.172,0.172,0,0,1,.178-0.128l-0.02.264-0.175-.027Zm-0.285,4.2,0.066,0.01,0,0.156-0.088-.014Zm-2.158-3.958,0.088,0.014-0.006.178L479.481,94Zm-1.07,5.462-0.028.175-0.175-.028,0.024-.152Zm-0.036-1.614-0.088-.014,0.006-.178,0.088,0.014ZM478.268,99.8l0.042-.261,0.065,0.011-0.016.243Zm0.162,3.086-0.088-.013,0.028-.175,0.087,0.014Zm0.023-4.107,0.006-.178a0.18,0.18,0,0,1,.169.206Zm0.035-.508,0.179,0.006-0.013.087-0.157,0Zm0.148,1.475-0.01.066-0.091.008-0.044-.431,0.088,0.014,0.165,0.093A0.581,0.581,0,0,0,478.636,99.746Zm0.347-.057-0.088-.014,0.063-.683L479.024,99Zm0.328,3.872-0.065-.01,0.016-.243,0.091-.008Zm-0.12-3.347,0.031-.331,0.091-.008-0.034.352Zm0.2-.416-0.244-.016,0-.022a0.172,0.172,0,0,1,.178-0.129l0.087,0.014Zm-0.277-1.652,0.011-.065,0.156,0-0.013.087Zm0.4,2.275-0.088-.014,0.006-.177,0.267,0.019A0.174,0.174,0,0,1,479.518,100.421ZM479.8,99.08l-0.088-.014,0.027-.174,0.088,0.013Zm0.019-.265L479.73,98.8l0.038-.239,0.07-.012Zm0.058-.5-0.088-.014,0.124-.495a0.649,0.649,0,0,0,.286.18l0.044,0.006A0.485,0.485,0,0,1,479.876,98.311Zm0.354,1.731-0.014.086-0.157,0-0.008-.09Zm-0.052-1.372L480,98.665l0.014-.087,0.179,0.006ZM479.991,99l0.066,0.011-0.006.178-0.087-.014Zm0.238,6L480.05,105l0.014-.087,0.179,0.006Zm0.475-1.579-0.087-.013,0.024-.153,0.091-.008Zm0.13-1.521-0.066-.01,0.006-.178,0.087,0.014Zm0.015-5.9-0.088-.014,0.028-.174,0.066,0.01Zm0.071,0.257-0.008-.091a0.528,0.528,0,0,0,.1-0.208l0.006-.043,0.088,0.013-0.013.088a0.829,0.829,0,0,0-.108.251Zm0.071,3.943,0.014-.086h0.157l0.008,0.091Zm0.36-.144-0.267-.019,0.014-.088,0.267,0.02Zm-0.044-.431-0.028.174-0.153-.024,0-.156Zm-0.159-.271,0.027-.174,0.088,0.014-0.028.174Zm0.266,0.019-0.087-.014,0-.156,0.091-.008Zm-0.038-.609-0.013.088a0.832,0.832,0,0,0-.108.251l-0.088-.013,0.011-.066a0.842,0.842,0,0,0,.107-0.251Zm-0.8-3.566,0.37-.211,0.04-.53,0.354,0.034-0.014.087-0.088-.013a2.216,2.216,0,0,1-.6.821l0,0.156,0.266,0.019-0.028.175-0.179-.006a0.18,0.18,0,0,1-.151-0.18Zm-0.064.682a0.692,0.692,0,0,0,.327.207,1.256,1.256,0,0,0-.193.506l-0.024.152-0.03.331-0.179-.006a0.486,0.486,0,0,0-.071-0.257,0.151,0.151,0,0,0,.177-0.128l0.007-.044-0.157,0,0.02-.265-0.064-.166A0.382,0.382,0,0,0,480.508,95.885Zm-0.127,1.365-0.115.585a0.537,0.537,0,0,0-.209-0.1l-0.044-.006,0.02-.265,0-.022A0.426,0.426,0,0,1,480.381,97.25Zm-0.249-.977a0.84,0.84,0,0,0-.092.3l-0.021.131-0.088-.014-0.044-.431Zm-0.3.489,0.087,0.013,0,0.178-0.088-.014Zm-0.02.265,0.179,0.006a0.529,0.529,0,0,0-.1.207l-0.006.044-0.088-.014Zm-0.254,1.032a0.521,0.521,0,0,1,.1-0.207,0.731,0.731,0,0,1-.057-0.344l0-.022a0.171,0.171,0,0,1,.178-0.128l0.088,0.013-0.03.331-0.179-.005,0.085,0.169-0.014.087a0.147,0.147,0,0,1-.181.15Zm-0.021.131,0.165,0.093a0.476,0.476,0,0,1-.288.4l0.03-.33Zm-0.434-.805,0.165,0.093-0.011-.069L479.42,97.5a0.809,0.809,0,0,0-.1.32L479.3,98l-0.087-.014a1.053,1.053,0,0,0-.195-0.612Zm-0.239.655a1.6,1.6,0,0,1,.11-0.407l0.088,0.014-0.036.508-0.093.165,0.022,0a0.076,0.076,0,0,1,.055.075l0.167-.063-0.016.243a0.718,0.718,0,0,0-.256-0.085l-0.088-.014C478.826,98.317,478.842,98.17,478.862,98.039Zm0.031,0.519-0.034.352,0,0.022a0.151,0.151,0,0,1-.178.129l0.033-.352A0.179,0.179,0,0,1,478.893,98.558Zm-0.168-.786,0.066,0.01a0.71,0.71,0,0,0-.085.255l-0.014.087a0.407,0.407,0,0,1-.247-0.284l0.027-.174A0.6,0.6,0,0,0,478.725,97.772Zm-0.261-1.047,0.094-.164,0.175,0.028-0.014.087a0.129,0.129,0,0,0-.174.107l-0.007.043-0.087-.014Zm-0.2.394a0.171,0.171,0,0,1,.178-0.128l-0.024.153-0.158,0Zm0.092,0.127a0.15,0.15,0,0,1,.129.177l-0.087-.014a0.178,0.178,0,0,1-.151-0.18Zm0.012,0.493-0.014.088-0.157,0-0.008-.091Zm-0.328,1.781,0.179,0.006-0.014.087-0.179-.006Zm-1.885,1.96-0.027.174-0.022,0a0.171,0.171,0,0,1-.13-0.177Zm-0.656-.394,0.087,0.014-0.027.174-0.088-.013Zm0.368-14.062,0.091-.008-0.02.265-0.087-.014Zm-0.526,2.04,0.02-.13,0.088,0.014a1.1,1.1,0,0,0,.03.518c-0.044-.007-0.075.048-0.093,0.164l-0.176-.028A4.794,4.794,0,0,0,475.344,89.064Zm-0.464,6.317-0.014.087-0.157,0-0.008-.091ZM474.814,94.1l-0.157,0,0.006-.178,0.175,0.028Zm0-.849-0.088-.014,0.058-.5,0.066,0.01Zm0.253,0.956-0.158,0,0.006-.178A0.148,0.148,0,0,1,475.067,94.2Zm0.049-.6,0.008,0.091-0.266-.019,0.014-.088Zm-0.173-1.881,0.088,0.013q-0.071.3-.119,0.607l-0.048.306-0.088-.014q0.045-.573-0.108-0.6A0.38,0.38,0,0,1,474.943,91.727Zm-0.361-.839,0.007-.043,0.091-.008-0.034.352-0.161-.114A0.5,0.5,0,0,0,474.582,90.888Zm-0.13.539,0.087,0.013-0.03.331-0.088-.014Zm-0.023.421,0.066,0.01a1.012,1.012,0,0,0,.072.257l-0.014.087-0.154-.024Zm-0.4-1.314L474,90.708l-0.088-.014,0.027-.174Zm-0.251-5.915,0.022,0a0.151,0.151,0,0,1,.129.176l-0.175-.027Zm-0.086,15.537,0.245,0.016-0.006.178a0.829,0.829,0,0,0-.253-0.107ZM473.065,84.73l0.092-.008-0.006.178-0.088-.014Zm-1.1,2.8,0.088,0.014-0.028.175-0.088-.014Zm-2.779,6.177,0-.021a0.454,0.454,0,0,1,.464-0.374l-0.041.262A0.578,0.578,0,0,0,469.19,93.706Zm0.829,0.153c-0.087-.014-0.142.045-0.162,0.175l-0.011.066-0.165-.093a0.78,0.78,0,0,0,.194-0.371l0.007-.044L469.97,93.6A0.533,0.533,0,0,0,470.019,93.859Zm0.428,0.983,0,0.022a0.151,0.151,0,0,1-.178.128l-0.087-.013a0.226,0.226,0,0,0-.225-0.281,0.178,0.178,0,0,1,.181-0.15A0.693,0.693,0,0,0,470.447,94.842ZM470.3,92.673a0.594,0.594,0,0,0,.107-0.251l0.01-.066L470.5,92.37l0,0.156a0.512,0.512,0,0,0-.1.207l-0.007.044-0.087-.014Zm-0.219,3.5,0.088,0.014,0,0.156-0.091.008Zm-0.151-.18,0.014-.087,0.157,0,0.008,0.09Zm0.02-.265-0.179-.006,0.014-.087,0.3-.311,0.165,0.093A0.413,0.413,0,0,1,469.948,95.724ZM469.9,94.353l0.014-.087,0.175,0.027-0.014.087Zm0.025,0.831a0.172,0.172,0,0,1,.178-0.129l0.088,0.014-0.028.174-0.241-.038Zm0.28,0.647,0.087,0.014-0.027.174-0.066-.01Zm0.085-2.8a0.572,0.572,0,0,0-.107.251l-0.014.088-0.088-.014L470.111,93Zm-0.173-.184,0.179,0.006-0.014.087-0.157,0Zm-0.008,1.183-0.028.174-0.066-.01,0-.156Zm-0.286.246-0.014.087-0.154-.024-0.008-.091Zm-0.156-1.142-0.092.008,0.028-.175,0.088,0.014Zm-0.386,1.86-0.044-.006,0.028-.175a0.709,0.709,0,0,0,.194-0.372l0.007-.043,0.175,0.027-0.027.174-0.11.407,0.176,0.028,0.14-.6,0.066,0.01-0.006.178q-0.159.579-.4,0.562l-0.066-.01A0.151,0.151,0,0,0,469.277,94.993Zm-0.016.668a0.189,0.189,0,0,1,.2-0.147l-0.033.352-0.176-.028Zm-0.344,1.175,0.006-.178c0.161,0.025.249-.013,0.265-0.114l0-.022a0.078,0.078,0,0,1,.074.1l0.192-.082-0.041.262-0.434.044Zm-0.527,1.056,0.087,0.014-0.041.262-0.066-.011ZM468,99.238l-0.066-.01,0.006-.178,0.088,0.014Zm0.275,0.534-0.044-.007,0-.022a0.06,0.06,0,0,1,.077-0.055q0.039-.4-0.2-0.434l-0.022,0,0.3-.489,0.048-.439a0.834,0.834,0,0,0,.658-0.612l-0.082-.192a0.983,0.983,0,0,1,.391-0.474l0.087,0.014a0.839,0.839,0,0,1-.107.251c-0.007.044,0.026,0.071,0.1,0.083l0.066,0.01-0.014.087a0.5,0.5,0,0,0-.467.4l-0.022.421c-0.163-.011-0.252.028-0.266,0.115l-0.045.283,0.086,0.169-0.38.41a1.127,1.127,0,0,0,.121.51l-0.087-.014a0.078,0.078,0,0,0,.074.1l-0.006.178-0.088-.014A0.22,0.22,0,0,0,468.271,99.772Zm1.335-2.181,0,0.022a0.151,0.151,0,0,1-.178.128l0.027-.174Zm-0.066.839,0,0.178-0.176-.027,0-.156Zm-0.756.8-0.016.243-0.179-.006a0.839,0.839,0,0,0,.108-0.251Zm-0.157,1.7-0.318-.117-0.008-.09a0.263,0.263,0,0,0,.29-0.268l0.007-.043,0.156,0-0.033.353Zm0.253,0.956-0.153-.024,0-.156,0.179,0.006Zm0.209-.325-0.179,0,0.014-.087,0.179,0Zm0.137-.581-0.087-.014,0.013-.087,0.094-.164a0.225,0.225,0,0,0-.225-0.281l0.01-.065,0.092-.009,0.161,0.115,0.171-.085Zm0.243-.677-0.091.008,0-.178,0.088,0.014Zm0.008-1.183-0.176-.028a1.621,1.621,0,0,1-.509,1.082,2.289,2.289,0,0,1,.027-0.309,1.422,1.422,0,0,1,.325-0.775l0.02-.265-0.179-.005L469,98.725l0.434-.043-0.014.087-0.093.164,0.044,0.007A0.128,0.128,0,0,1,469.477,99.113Zm0.217,0.615a0.672,0.672,0,0,0-.129.248l-0.066-.011-0.008-.09a0.6,0.6,0,0,0,.107-0.252l0.011-.065,0.091-.008Zm0.061-1.8a0.7,0.7,0,0,0-.209.325l-0.069.012-0.008-.091c0.075-.285.179-0.419,0.31-0.4Zm0.14,1.385-0.088-.014,0.024-.152,0.069-.012ZM470,97.1l0.082,0.191-0.014.087c-0.1-.016-0.165.049-0.188,0.194l-0.007.044-0.176-.028,0.094-.164-0.138-.267c0.149,0.009.243-.111,0.282-0.358l0.021-.13-0.179-.006,0.028-.174,0.434-.043a0.531,0.531,0,0,0,.049.253C470.227,96.983,470.131,97.115,470,97.1Zm0.452,1.68-0.175-.028a0.189,0.189,0,0,1,.2-0.147Zm-0.222-2.425,0.118-.317,0.044,0.007a0.127,0.127,0,0,1,.107.173l0.009,0.091A0.692,0.692,0,0,0,470.23,96.349Zm0.333-1.668-0.175-.028,0.013-.087,0.176,0.027Zm0.036-.508-0.088-.014,0.028-.174L470.626,94Zm0.133-1.543-0.07.012,0.02-.265,0.088,0.014Zm0.076,1.218-0.017.243-0.087-.014,0.016-.243Zm-0.143,1.609,0.019-.265,0.176,0.028a0.515,0.515,0,0,0-.1.207l-0.007.044Zm0.137,2.39-0.091.008,0-.178a0.22,0.22,0,0,1,.195-0.238Zm0.179-2.966-0.088-.014,0-.156,0.091-.008Zm0.047-1.713-0.157,0,0.034-.352a0.17,0.17,0,0,1,.147.2Zm0.172,3.87-0.066-.01a1.036,1.036,0,0,0-.071-0.257l0.179,0.005Zm0.012-2.9,0.087,0.014-0.024.152-0.091.009Zm-0.027-3.511,0.016-.243,0.091-.008-0.041.262Zm0.011,3.755-0.028.175-0.088-.014,0.024-.153Zm0.048,2.241-0.088-.014,0.028-.174,0.088,0.014Zm0.02-.264,0.013-.088a0.181,0.181,0,0,1,.182-0.15l0.008,0.091A0.157,0.157,0,0,1,471.264,96.355Zm0.414,0.221a0.189,0.189,0,0,1-.148-0.2l0.014-.087,0.066,0.01,0.161,0.115Zm0.033-.352-0.179-.006,0.028-.174,0.044,0.007A0.128,0.128,0,0,1,471.711,96.224Zm-0.1-7.7-0.02.265-0.161-.115A0.178,0.178,0,0,1,471.609,88.522Zm-0.446.4,0.157,0,0.008,0.091-0.179-.006Zm0.239,0.194-0.038.239a0.675,0.675,0,0,0-.19.35l-0.011.066-0.175-.028A0.786,0.786,0,0,1,471.4,89.116Zm-0.362,2,0.008,0.09-0.344.75-0.066-.011-0.008-.09a6.1,6.1,0,0,1,.318-0.732Zm-0.259-.778,0.157,0-0.415.918,0.063,0.167a0.487,0.487,0,0,0-.258.071,0.738,0.738,0,0,0-.058-0.344A2.976,2.976,0,0,0,470.781,90.336Zm-0.635,1.309-0.179-.006,0.014-.087,0.091-.008a0.542,0.542,0,0,0,.228.125l-0.011.066a3.689,3.689,0,0,1-.313.844l-0.088-.013-0.052-.523Zm-0.184,1.021a0.818,0.818,0,0,0-.118.317l-0.165-.093a0.508,0.508,0,0,0,.1-0.207l0.007-.044Zm-0.327-.208,0.179,0.006-0.014.087-0.179-.006Zm-0.2.393a0.18,0.18,0,0,1,.181-0.15l-0.028.174-0.157,0ZM489.45,78.365l-0.091.008,0,0.156,0.088,0.014Zm-0.533.386-0.088-.014a0.175,0.175,0,0,0-.185.173l0.069-.012A0.157,0.157,0,0,0,488.917,78.75Zm-4.406,5.944A1.671,1.671,0,0,0,485,84.055l0.014-.087-0.088-.014a0.811,0.811,0,0,0-.5.726Zm1.108-2.73-0.028.174a0.422,0.422,0,0,0,.283-0.224l0.014-.087-0.088-.013A0.161,0.161,0,0,0,485.619,81.964Zm0.745-1.716-0.088-.013a0.358,0.358,0,0,0-.257.206l0,0.021,0.154,0.025a0.151,0.151,0,0,0,.177-0.129Zm-1.234,1.259,0.085,0.169,0.86-1.026-0.06-.189A4.579,4.579,0,0,0,485.13,81.507Zm-0.344,2.024-0.175-.028-0.007.044a0.526,0.526,0,0,1-.1.207l-0.006.178a0.446,0.446,0,0,0,.278-0.335Zm0.619-.216,0.027-.174a0.2,0.2,0,0,0-.206.168Zm0.772-1.889a0.149,0.149,0,0,0-.182.15l-0.013.087a0.15,0.15,0,0,0,.177-0.128Zm-6.294,10.9L479.8,92.31l-0.006.178,0.245,0.016A0.162,0.162,0,0,0,479.883,92.324ZM467.936,98.2l0.11-.408-0.176-.027,0,0.022a6.188,6.188,0,0,1-.321.887l-0.014.087,0.176,0.028,0.17-.085-0.063-.167,0.02-.265L468.01,98.3A0.1,0.1,0,0,0,467.936,98.2Zm18.37-16.174,0.006-.178a0.449,0.449,0,0,0-.278.337l0.069-.012A0.157,0.157,0,0,0,486.306,82.027ZM486.121,83.9a0.151,0.151,0,0,0,.13.177l0.043,0.006,0.007-.044a0.514,0.514,0,0,1,.1-0.207l-0.088-.014Zm1.427-3.462,0.008,0.09,0.245,0.016,0.014-.087Zm-0.717,2.389-0.031.2,0.179,0.006a0.886,0.886,0,0,1,.121-0.338l0.01-.066A0.377,0.377,0,0,0,486.831,82.824Zm0.279-.2,0.07-.011,0.024-.152-0.088-.014Zm1.158-1.628-0.069.012a0.647,0.647,0,0,0-.39.475l-0.028.175A1.35,1.35,0,0,0,488.268,80.994Zm0.154-1.674,0-.021-0.179-.006a0.162,0.162,0,0,0-.181.15l0.008,0.091,0.066,0.01A0.368,0.368,0,0,0,488.422,79.32Zm-5.189,5.352-0.013.087a2.008,2.008,0,0,0-.568.6l0,0.021a0.128,0.128,0,0,0,.108.173l0.043,0.007-0.093.164-0.028.174a1.8,1.8,0,0,0,.786-1.128l-0.065-.01,0.173-.241,0.03-.33-0.45.287Zm-0.992,4.268,0.028-.174-0.179-.005-0.028.174Zm0.421-2.793a0.606,0.606,0,0,0-.362.3l0,0.022-0.618,1.065,0.091-.008-0.007.044a1.832,1.832,0,0,1-.6.934l0.176,0.027-0.025.152c-0.058-.009-0.084-0.036-0.077-0.079a0.611,0.611,0,0,1-.363.3l-0.013.087,0.085,0.17a0.093,0.093,0,0,0-.1.073l-0.014.088,0.159,0.271-0.014.087a0.151,0.151,0,0,0-.178.128l0,0.022-0.091.008-0.162-.115a0.079,0.079,0,0,1-.1.074,0.18,0.18,0,0,0,.17.205,0.078,0.078,0,0,1-.1.073l0.159,0.271-0.038.239-0.165-.093,0.008,0.091,0.063,0.166-0.044-.007a0.514,0.514,0,0,1-.208-0.1,6.3,6.3,0,0,0-.52,1.147l-0.028.175a0.078,0.078,0,0,0,.1-0.073l0.154,0.024L480,91.985l-0.179-.006a0.15,0.15,0,0,0,.129.177l0.11,0.017L480.092,92l0.066,0.01,0.008,0.091a0.588,0.588,0,0,0-.108.252l-0.01.065,0.088,0.014c0.087,0.014.145-.066,0.173-0.241l0.014-.087a1.674,1.674,0,0,0,.579-0.534l-0.008-.091-0.066-.01a0.187,0.187,0,0,0-.188.194l-0.007.044-0.088-.014a0.879,0.879,0,0,0-.057-0.344,1.448,1.448,0,0,0,.4-0.675l0.007-.044,1.754-4.394Zm-2.5,5.013,0.091-.008-0.028.174-0.088-.014Zm0.013,0.762a0.859,0.859,0,0,0-.252-0.106l0.027-.175,0.11,0.017a0.15,0.15,0,0,1,.129.177Zm0.209-.324-0.179-.006,0.014-.087,0.179,0.006Zm1.489-.459,0.179,0.006,0.014-.087a0.962,0.962,0,0,1,.211-0.481l-0.088-.014-0.167.063a0.462,0.462,0,0,1-.145-0.358l-0.273.159,0.044,0.431,0.179,0.006,0-.156L482,90.713l-0.093.164Zm-0.337-1.84-0.028.174L481.68,89.5l0.006-.178ZM481.9,89l0.027-.175a0.193,0.193,0,0,0-.2.148Zm0.951-1.884,0.157,0,0.131-.4,0.014-.087A0.518,0.518,0,0,0,482.846,87.114Zm0.527-.208-0.175-.028-0.113.43,0.156,0Zm0.993-2.57,0.028-.174-0.092.008-0.024.153Zm-0.629-.568a0.586,0.586,0,0,0-.108.251l-0.027.175a1.475,1.475,0,0,1,.5-0.57l0.022-.422a0.626,0.626,0,0,1-.44.222A0.715,0.715,0,0,0,483.737,83.768Zm1.377-2.017-0.179-.006-0.11.407,0.245,0.016Zm-0.571.759-0.006.044-0.022,0a0.059,0.059,0,0,1-.056-0.076l-0.189.059a0.475,0.475,0,0,0,.071.257l-0.194.237-0.028.174a0.849,0.849,0,0,0,.579-0.534l-0.082-.191a0.079,0.079,0,0,0,.1-0.074l0.014-.087A0.187,0.187,0,0,0,484.543,82.51Zm-3.41,9.161-0.154-.024-0.014.087,0.176,0.028Zm0.412,1.227a0.152,0.152,0,0,0,.178-0.129l0.031-.2-0.179-.006-0.016.243-0.239-.194-0.014.088a0.151,0.151,0,0,0,.129.177Zm-0.052-2.22-0.175-.028-0.006.178,0.157,0Zm-1.275,3.642,0.027-.174-0.087-.014a0.591,0.591,0,0,1-.253-0.107,0.2,0.2,0,0,0-.185.172l0.064,0.166a0.078,0.078,0,0,0,.1-0.074,0.079,0.079,0,0,1,.074.1A0.493,0.493,0,0,1,480.218,94.32Zm-0.544-1.672,0.008,0.091c-0.014.087,0.089,0.148,0.308,0.183l0.176,0.027-0.094.164-0.016.243,0.153,0.024a0.855,0.855,0,0,1,.108-0.251,0.506,0.506,0,0,0-.533-0.464Zm1.789-.791-0.064-.166c-0.117-.019-0.217.144-0.3,0.488l0,0.156a0.72,0.72,0,0,0,.376-0.388Zm12.567-2a0.2,0.2,0,0,0,.254-0.184l-0.329-.052-0.034.218ZM488.986,93.6l0.031-.2-0.11-.018a0.2,0.2,0,0,0-.25.162l0.074,0.235A0.2,0.2,0,0,0,488.986,93.6Zm5.729-3.1,0.031-.2-0.11-.017-0.031.2Zm-3.756-1.684,0.219,0.035,0.018-.109-0.22-.035Zm5.772,12.9,0.017-.109-0.219-.034-0.017.109Zm-6.288-9.655a0.225,0.225,0,0,0-.184-0.253l-0.052.328,0.219,0.034Zm7.81,0.779,0.22,0.035,0.017-.109-0.219-.035Zm-7.446-.945L490.789,92a0.923,0.923,0,0,0,.872-0.533l0.034-.218A0.225,0.225,0,0,0,491.511,91l-0.018.109,0.076,0.235A0.947,0.947,0,0,0,490.807,91.894Zm0.319-2.72,0.11,0.017,0.035-.218-0.11-.018Zm-0.919.839a0.225,0.225,0,0,0-.254.183l-0.018.109,0.22,0.034ZM489.474,91.8l-0.035.218,0.219,0.035A0.208,0.208,0,0,0,489.474,91.8Zm2.045-3.678,0.017-.109-0.109-.017a0.228,0.228,0,0,0-.254.184l-0.018.109,0.11,0.017A0.2,0.2,0,0,0,491.519,88.118Zm-1.895,4.148,0.219,0.035,0.017-.109-0.219-.034Zm8.734,9.816a0.863,0.863,0,0,0-.346.058,0.847,0.847,0,0,1-.312-0.161l-0.236.074-0.2-.142-0.473.149,0.017-.109,0.144-.2a3.588,3.588,0,0,0-1.346.124,0.93,0.93,0,0,1-.461-0.63,0.826,0.826,0,0,0-.456.04l-0.11-.017,0.018-.11,0.582-.131,0.035-.218a8.273,8.273,0,0,1-3.371.141,5.643,5.643,0,0,1-.252-3.369l0.191-1.2-0.075-.235a0.1,0.1,0,0,0,.127-0.092l0.017-.109-0.075-.235,0.236-.075a0.833,0.833,0,0,0-.057-0.344,14.5,14.5,0,0,1,.966-1.836l0.017-.11-0.219-.035-0.035.218-0.109-.017,0.069-.436a0.633,0.633,0,0,0,.757-0.663l-0.2-.031-0.035.218-0.11-.017,0.018-.109a5.478,5.478,0,0,1,.7-1.007l0.035-.218-0.11-.017a8.667,8.667,0,0,1-1.115,1.5l-0.11-.018,0.6-.912-0.075-.235a13.267,13.267,0,0,1,2.329-2.07l0.052-.327a14.724,14.724,0,0,0-2.421,1.944l0.034-.218,0.144-.2-0.219-.034a3.014,3.014,0,0,1,1.694-1.61l0.11,0.016-0.144.2-0.017.109a5.819,5.819,0,0,0,1.235-.7q1.425,0.224,1.148,1.968l-0.066.414-0.2.528a0.1,0.1,0,0,1,.092.126,0.1,0.1,0,0,0-.127.092l-0.121.762a2.789,2.789,0,0,1,.826,1.024l0.658,0.1-0.1-.8,0.219,0.034,0.1-.654,0.145-.2-0.11-.017a0.858,0.858,0,0,1,.161-0.31l-0.074-.235,0.2-.528-0.079-.213,0.11,0.017-0.225-.706,0.219,0.035,0.2,0.143,0.069-.436-0.219-.035-0.035.218-0.109-.017q0.12-.763-1.4-2.343-1.252-.6-1.211-0.86a0.9,0.9,0,0,0-.456.04l-0.2-.143-0.11-.018-0.035.218,0.329,0.052-0.017.109L495.046,87a2.069,2.069,0,0,1-1.144.268l-0.017.108,0.075,0.235-0.531-.194,0.017-.11q0.052-.327.8-0.21l0.034-.218a3.4,3.4,0,0,0-2.632,1.151l-0.017.109,0.109,0.017a0.994,0.994,0,0,1,.6-0.241l-0.075-.235,1.056-.281a0.853,0.853,0,0,0,.058.344,0.294,0.294,0,0,0-.381.275,3.477,3.477,0,0,0-.941.969,11.738,11.738,0,0,0-1.716,1.607l-0.086.545c-0.22-.034-0.341.022-0.364,0.166l-0.034.218a0.2,0.2,0,0,0,.184.253c0.035-.218.125-0.316,0.272-0.293L490.42,91.5l-0.052.327a2.105,2.105,0,0,0,1.085-1.171l-0.271-.248a4.7,4.7,0,0,1,.831-0.446l-0.548-.086,0.014-.088a1.389,1.389,0,0,0,.675,0,0.1,0.1,0,0,0,.092.126,0.2,0.2,0,0,0,.254-0.184l0.017-.11a0.835,0.835,0,0,1-.311-0.16,0.1,0.1,0,0,1-.127.092l-0.11-.017L492,89.311a0.9,0.9,0,0,0,.456-0.04l-0.018.109a0.844,0.844,0,0,0,.346-0.057,2.575,2.575,0,0,1,1.687-.853l0.109,0.017-0.271.293a6.068,6.068,0,0,0-2.4,1.834l-0.017.109L492,90.741a0.449,0.449,0,0,0,.381-0.276L492.6,90.5l-0.018.109a2.364,2.364,0,0,0-.958,1.079q-0.352.949-.813,0.877a0.194,0.194,0,0,0,.184.252,1.661,1.661,0,0,0-.542.585l-0.11-.016,0.017-.11q0.015-.087.214-0.636l-0.329-.052a0.882,0.882,0,0,1-.179.418l0.167,0.362-0.329-.052-0.017.109a0.733,0.733,0,0,1,.312.161,2.344,2.344,0,0,0-.354.816l-0.11-.018,0.069-.436-0.219-.035q-0.07.436-.289,0.4l0.695-1.544,0.017-.109a0.1,0.1,0,0,0-.127.092l-0.2-.143-0.109-.017c-0.035.218-.125,0.316-0.271,0.292l-0.11-.017,0.035-.218-0.342.17-0.11-.018,0.018-.109,0.271-.292,0.069-.436a1.033,1.033,0,0,0-.56.694,1.118,1.118,0,0,0,.462.631l0.088,0.014q0.051-.327.271-0.293a0.885,0.885,0,0,0,.04.453l-0.219-.035-0.014.088,0.023,0.562q-0.308-.048-0.59,1.024l-0.109-.017,0.156-.981-0.474.149,0.07-.436-0.11-.017-0.237.075a0.225,0.225,0,0,0-.184-0.253,7.421,7.421,0,0,1,1.375-3l0.018-.109-0.219-.035,0.051-.327,0.2,0.143,0.237-.074-0.023-.563,0.017-.109a2.271,2.271,0,0,0,.933-1.06l0.017-.109-0.219-.035-2.41,3.286L487.73,92.3a1.276,1.276,0,0,0-.214.637l-0.2-.144a0.226,0.226,0,0,0-.254.183l-0.187,1.178,0.22,0.034-0.035.218-0.219-.035-0.018.109,0.22,0.035-0.035.217-0.219-.034-0.087.545a6.976,6.976,0,0,0,.7,4.109,1.919,1.919,0,0,1,.757,1.46,1.24,1.24,0,0,1,1,.8l-0.219-.035a0.2,0.2,0,0,0,.185.253l0.109,0.018,0.237-.075,0.167,0.361q1.307,0.831,1.27,1.2l0.363-.167,0.2,0.144a0.091,0.091,0,0,1,.1-0.1l0.11,0.018-0.035.218-0.307-.049-0.017.109a7.082,7.082,0,0,1,1.277.313,0.1,0.1,0,0,1,.126-0.092q-0.051.327,0.168,0.361l0.329,0.052,0.236-.075a0.1,0.1,0,0,0,.093.127l0.236-.075-0.017.109a0.907,0.907,0,0,0,.456-0.04l0.2,0.143,0.236-.075a0.1,0.1,0,0,0,.093.127l0.052-.327a8.664,8.664,0,0,0,1.2.077l0.052-.327a1.325,1.325,0,0,1,.912-0.081c0.023-.144-0.112-0.24-0.4-0.286l0.017-.109A7.752,7.752,0,0,0,498.358,102.082Zm-5.428-9.408,0.11,0.017-0.034.218-0.11-.018Zm4.741-1.826,0.2,0.144a0.2,0.2,0,0,1-.253.183Zm-2.706-2.636,0.22,0.035a0.2,0.2,0,0,1-.254.184Zm-4.274,2.993-0.109-.018,0.034-.218,0.11,0.017Zm0.087-.545-0.219-.035,0.017-.109,0.219,0.034Zm0.439,0.069a0.858,0.858,0,0,0-.347.058,0.636,0.636,0,0,1,.282-0.357l-0.01.064Zm0.213-.636-0.329-.052,0.144-.2A0.2,0.2,0,0,1,491.43,90.092Zm2.224-1.975-0.109-.017,0.034-.218,0.11,0.017ZM486.9,96.843l-0.109-.017,0.034-.218,0.11,0.017Zm0.462-3.614A0.215,0.215,0,0,1,487.17,93l0.219,0.035Zm0.831,1.137a0.2,0.2,0,0,1,.185.252l-0.144.2,0.109,0.017-0.034.218-0.11-.017,0.035-.218-0.237.074a0.911,0.911,0,0,0-.133-0.579Zm-0.312,1.962-0.109-.017,0.034-.218,0.11,0.018Zm0.269,1.137a0.2,0.2,0,0,1-.188-0.231l0.22,0.035Zm-0.119-.667,0.035-.217,0.219,0.034A0.2,0.2,0,0,1,488.027,96.8Zm0.07-.435,0.035-.218,0.219,0.034A0.2,0.2,0,0,1,488.1,96.361Zm-0.058-.345-0.006-.671a0.227,0.227,0,0,1,.254-0.184,1.16,1.16,0,0,0,.133.58A0.5,0.5,0,0,1,488.039,96.016Zm0.652-.568-0.11-.017,0.035-.218,0.11,0.017Zm0.428,1.408-0.109-.017,0.034-.218,0.11,0.017Zm0.2-1.979-0.109-.017,0.069-.436,0.109,0.017Zm0.295,0.27-0.11-.017,0.1-.654,0.2,0.143A1.062,1.062,0,0,0,489.616,95.148Zm0.49-.259L490,94.872l0.034-.218,0.11,0.017Zm0.331-1.378,0.22,0.034-0.018.109-0.219-.034Zm0.315,2.261-0.219-.034,0.017-.11a0.226,0.226,0,0,1,.254-0.183Zm1.6-2.967,0.109,0.017-0.052.327-0.109-.018Zm-0.179.419,0.109,0.017-0.052.327-0.109-.017Zm-0.2.528,0.11,0.018-0.048.3-0.11-.017Zm-0.175.4,0.11,0.018-0.035.218-0.11-.017Zm0.058,0.344-0.179.419-0.11-.017,0.017-.11C491.618,94.568,491.708,94.47,491.855,94.493Zm-0.385-1.825,0.11,0.017-0.035.218-0.109-.017Zm-0.493,1.688,0.11,0.017-0.034.218-0.11-.017Zm0.254,1.938-0.219-.034,0.018-.109a0.225,0.225,0,0,1,.253-0.184Zm0.191-1.2,0.109,0.017-0.034.218-0.11-.017Zm3.634,6.692-0.11-.017,0.035-.218,0.11,0.018Zm-2.787-13.44-0.219-.034-0.018.109,0.22,0.034ZM488.2,93.584l0.219,0.035,0.034-.218-0.219-.035Zm1.9-4.348a0.985,0.985,0,0,0-.5.458l-0.034.218a2.439,2.439,0,0,1,.609-0.441ZM488.63,93a0.21,0.21,0,0,0-.254.183l-0.017.109,0.219,0.035Zm1.848-3.285-0.017.109a0.814,0.814,0,0,1,.469-0.127,0.1,0.1,0,0,0-.092-0.126l0.144-.2-0.329-.052A0.769,0.769,0,0,1,490.478,89.719Zm19.534,2.53,0.068-.146-0.367-.236-0.088-.014a0.286,0.286,0,0,1-.349.214,0.7,0.7,0,0,1-.15-0.046l-0.068.146a0.987,0.987,0,0,0,.216.056A4.212,4.212,0,0,0,510.012,92.249Zm-4.129-.469-0.035.084,0.146,0.068,0.036-.084Zm2.238,0.485,0.136,0.134a1.618,1.618,0,0,0,.8-0.232,2.569,2.569,0,0,1-.6-0.318,0.307,0.307,0,0,1-.3.064,0.1,0.1,0,0,0,.048.12l-0.436.2,0.131,0.02A1.109,1.109,0,0,0,508.121,92.265Zm-2.156-.718-0.4-.152-0.025.152a0.132,0.132,0,0,0,.111.151A0.326,0.326,0,0,0,505.965,91.547Zm0.02-1.963L505.9,89.57l-0.046.15,0.084,0.036ZM506,92.2l-0.169-.071-0.014.087,0.15,0.046Zm0.189-2.182L506.054,90a0.159,0.159,0,0,0-.171.085l-0.035.084A0.351,0.351,0,0,0,506.186,90.018ZM505.511,91.3h0.719l0.035-.083-0.062-.033-0.624-.031Zm-1.939,1.595-0.085-.036a0.623,0.623,0,0,1,.166-0.2l0.036-.084-0.3.064a0.1,0.1,0,0,0,.048.12l-0.216.368,0.066,0.01,1.771-.392a8.577,8.577,0,0,0,2.711-.513l-0.231-.1a0.22,0.22,0,0,1-.232.187,0.2,0.2,0,0,1-.084-0.036L507.2,92.1a1.417,1.417,0,0,0-.344-0.1,1.326,1.326,0,0,0-.245-0.017l-0.068.147,0.066,0.01A1.2,1.2,0,0,0,507,92.112l0.084,0.036a8.473,8.473,0,0,1-2.041.394A7.464,7.464,0,0,1,503.572,92.892Zm-4.584,12.864-0.168-.071-0.05.171,0.15,0.045Zm13.535-13.47a0.192,0.192,0,0,0,.215-0.078l0.014-.087a0.853,0.853,0,0,1-.387.029l-0.066-.01-0.01.065,0.147,0.068ZM507.087,90l0.147,0.068,0.044,0.007a0.143,0.143,0,0,0,.174-0.107l0.036-.084c-0.208-.018-0.318-0.027-0.333-0.03Zm2.157,1.7,0.063,0.032,0.043,0.007a0.144,0.144,0,0,0,.175-0.107l-0.231-.1Zm2.116,7.481,0.146,0.068,0.072-.167-0.172-.05ZM507.6,91.715l0.084,0.036,0.044,0.007a0.142,0.142,0,0,0,.174-0.107l-0.234-.081Zm0.151-1.094-0.046.15,0.146,0.067,0.072-.167Zm0.336,1.282-0.066-.01a0.153,0.153,0,0,0-.152.11l0.15,0.046Zm3.481,0.3-0.172-.049-0.036.084,0.172,0.049Zm-7.589,8.439,0.235,0.081,0.046-.149-0.063-.032-0.044-.008A0.163,0.163,0,0,0,503.981,100.642Zm-1.9-7.135,0.036-.084-0.084-.035-0.022,0a0.2,0.2,0,0,0-.2.1l-0.036.084,0.084,0.035,0.044,0.007A0.161,0.161,0,0,0,502.08,93.507Zm1.276-1.945a0.394,0.394,0,0,0-.338.148l0.172,0.049a0.342,0.342,0,0,0,.312-0.13Zm-4.63,11.316,0.063,0.031,0.774-.347,0-.022a0.2,0.2,0,0,0-.1-0.2,1.486,1.486,0,0,0-.726.467ZM502.9,92.295l0.044,0.007a0.162,0.162,0,0,0,.174-0.107l0.036-.083-0.168-.072Zm0.437-.2,0.062,0.032,0.071-.167-0.084-.035ZM502.32,93.41a2.948,2.948,0,0,0,.733-0.086l0.082-.232a1.831,1.831,0,0,0-.837.316Zm8.261-1.206-0.319-.117-0.068.146,0.169,0.072,0.044,0.006A0.163,0.163,0,0,0,510.581,92.2Zm2.082,12.079a0.632,0.632,0,0,0,.778-0.369l-0.465-.185,0.013-.087a0.447,0.447,0,0,0,.128.042,0.615,0.615,0,0,0,.321-0.039,0.56,0.56,0,0,0-.315-0.563l0.007-.044a2.333,2.333,0,0,0-.525-1.221l-0.062-.032a0.782,0.782,0,0,0-.172-0.05,0.765,0.765,0,0,0-.179-0.006,0.5,0.5,0,0,1-.289-0.447,15.921,15.921,0,0,0-1.646-.393,1.337,1.337,0,0,0-.423-0.021l-0.305-.2-0.307-.049q-1.119-.175-1.229.1l-0.234-.082,0.049-.171-0.062-.032-0.107.252-0.063-.033,0.014-.086a2.242,2.242,0,0,0-.366-0.1,0.2,0.2,0,0,0-.233.053,0.076,0.076,0,0,1-.055-0.076l0-.022q-0.377-.036-0.551-0.064l-0.132-.021a1.474,1.474,0,0,1-.823.228l-0.381-.149-0.036.085-0.318-.118,0.016,0.181-0.15-.045-0.068.145,0.168,0.072,0.044,0.006a0.163,0.163,0,0,0,.175-0.107l0.114,0.13,2.195,0.189,0.234,0.081-0.035.084a5.059,5.059,0,0,1-.961-0.039,2.71,2.71,0,0,1-.347-0.077,15.888,15.888,0,0,0-2.288.11l0.033-.062-0.3.064-0.231-.1a0.153,0.153,0,0,1-.1-0.195l-0.183.016a7.829,7.829,0,0,1,.439-1.629l0.271-.717a1.033,1.033,0,0,1,.583-0.132l0.433,0.247,0.386-.029-0.065.415,0.28-.069a0.437,0.437,0,0,1-.17.219l-0.01.066,0.062,0.032,1.992-.514L507.2,98.8a5.482,5.482,0,0,1,2.056-.214l-0.038-.185,0.044,0.007a0.721,0.721,0,0,0,.226-0.009l0.169,0.072a0.086,0.086,0,0,1-.1.051l-0.022,0,0.016,0.182,0.855,0.134,0.283,0.2a0.087,0.087,0,0,1,.1-0.052l0.022,0,0.114,0.13,0.3-.064-0.016-.181,0.036-.084a0.62,0.62,0,0,1,.2.166,0.71,0.71,0,0,1,.179.005,0.774,0.774,0,0,1,.172.049l0.02-.13a1.09,1.09,0,0,0,.013-0.222l0.134-.135a7.348,7.348,0,0,1-.586-1.544,1.521,1.521,0,0,1-.621-0.9l0.007-.044-0.169-.071,0.016,0.181-0.15-.046,0.036-.084,0.134-.135a1.205,1.205,0,0,0-.618-0.5l-0.234-.081-0.2.013a0.628,0.628,0,0,0-.4-0.33q-0.325-.074-0.633-0.122a7.353,7.353,0,0,0-1.895-.1l0.016,0.181L506.6,94.93a1.137,1.137,0,0,0-.2-0.008,0.363,0.363,0,0,1-.2-0.166,0.186,0.186,0,0,1-.24.1,0.661,0.661,0,0,1-.15-0.046c-0.009.058,0.008,0.091,0.052,0.1a0.555,0.555,0,0,1-.5.168c-0.029,0-.038-0.043-0.026-0.116a1.5,1.5,0,0,1,.092-0.3l-0.3.065,0.082-.233-0.234-.081a0.2,0.2,0,0,1-.185.172l-0.132-.021,0.086-.254-0.088-.014-0.182.016a1.047,1.047,0,0,1,.3-0.333l0.036-.084-0.15-.046-0.385.3-0.084-.035,0.036-.084,0.13-.113,0.036-.084-0.3.064,0.082-.233a2.21,2.21,0,0,0-.431-0.113,2.092,2.092,0,0,0-1.707.559l0.016,0.181-0.022,0q-0.351-.055-1.486,2.135l-0.221.546,0.038,0.184-0.084-.035c-0.081.315-.139,0.588-0.176,0.822a1.061,1.061,0,0,0,.1,1.044l-0.038.24a0.5,0.5,0,0,0,.173.608,2.643,2.643,0,0,0,.581,1.3l-0.131.114-0.071.167,0.172,0.049-0.036.084-0.134.136c0.044,0.006.061,0.039,0.052,0.1l0.182-.016a0.707,0.707,0,0,0-.049.171,0.658,0.658,0,0,0,0,.156l-0.618.216,0.109,0.017a2.254,2.254,0,0,0,.945-0.142l0.15,0.045a0.143,0.143,0,0,1-.175.107l-0.044-.007,0.017,0.182a0.531,0.531,0,0,0-.352.235l-0.147-.068,0.082-.233-0.15-.046a1.582,1.582,0,0,1-.368.479,0.076,0.076,0,0,1,.055.076l0,0.021-0.044-.007a0.143,0.143,0,0,0-.174.107l-0.173-.049,0.072-.168-0.306.086a0.424,0.424,0,0,0,.043-0.127,0.141,0.141,0,0,0-.107-0.173,0.256,0.256,0,0,1-.283.223l-0.066-.01a0.665,0.665,0,0,1-.562.426l-0.044-.007-0.046.149,0.234,0.082-0.036.083-0.99.716-0.046.149,0.147,0.068,0.071-.167a1.818,1.818,0,0,0,.867-0.647l0.234,0.082q-0.882.6-1.6,1.178l-0.072.168a1.284,1.284,0,0,0,.271,0,0.251,0.251,0,0,1,.13.31,1.011,1.011,0,0,1-.085.255l0.084,0.036,0.044,0.006a0.142,0.142,0,0,0,.174-0.106l0.072-.168-0.172-.049a0.162,0.162,0,0,1,.174-0.107l0.044,0.007,0.172,0.049-0.007.044a0.314,0.314,0,0,0,.218.325,1.823,1.823,0,0,0,.508-0.368l-0.088-.013-0.182.016,0.049-.171a5.652,5.652,0,0,0,1.257-.7l0.147,0.068a2.509,2.509,0,0,0-1.167.979,0.086,0.086,0,0,1,.052.1l0,0.022a4.02,4.02,0,0,0,1.32-.664,0.1,0.1,0,0,1-.049-0.119,0.819,0.819,0,0,1,.221.168l0.582-.132,0.007-.043a1.411,1.411,0,0,0-.025-0.406l0.036-.084,0.4,0.152-0.036.084a0.4,0.4,0,0,0-.106-0.039,0.156,0.156,0,0,0-.2.1l-0.013.087,0.065,0.01a0.481,0.481,0,0,0,.4-0.116,29.958,29.958,0,0,1,6.625-.389l-0.014.086a32.635,32.635,0,0,1,3.835.334l0.241,0.038,0-.022a0.086,0.086,0,0,0-.052-0.1l0.134-.135,0.032-.062-0.4-.153,0.036-.084A2.3,2.3,0,0,0,512.663,104.283Zm-6.924-5.935,0.146,0.068-0.01.066-0.172-.05Zm-0.452.019,0.15,0.045L505.4,98.5l-0.147-.068Zm-1.021-.653,0.15,0.046a1.137,1.137,0,0,1-.532.52A3.451,3.451,0,0,1,504.266,97.714Zm-5.625,7.54a0.141,0.141,0,0,1-.107-0.173l0.006-.044,0.147,0.068Zm0.047-.863a0.143,0.143,0,0,1-.174.107l-0.044-.008,0.036-.083a0.17,0.17,0,0,1,.218-0.1Zm0.337,0.567-0.084-.036,0.082-.233,0.084,0.035Zm0.264-.25-0.084-.035,0.068-.146,0.088,0.014Zm0.411-.181-0.01.066-0.147-.068,0.047-.149A0.131,0.131,0,0,1,499.7,104.527Zm-0.109.832-0.085-.036,0.072-.167,0.062,0.032Zm0.4-.116-0.084-.035,0.01-.066a1.025,1.025,0,0,0,.01-0.2l0.15,0.046Zm2.411-1.878,0.235,0.082-0.05.17a0.45,0.45,0,0,0-.221-0.168Zm-0.716.268,0.15,0.045-0.036.084-0.15-.046Zm-1.141-.6,0.084,0.036-0.068.145-0.062-.032Zm-0.166.2,0.169,0.071a0.163,0.163,0,0,1-.175.107l-0.044-.007Zm0.032,1.636-0.084-.035,0.05-.171,0.084,0.035Zm-0.421-.6-0.062-.032a2.683,2.683,0,0,1,1.117-.383l-0.014.087A3.1,3.1,0,0,1,499.99,104.26Zm0.639,0.5-0.084-.035,0.05-.171,0.084,0.035Zm0.554-.515a1.059,1.059,0,0,1-.64.212l0.036-.084a0.865,0.865,0,0,1,.618-0.216Zm1.719-.066-0.147-.068,0.033-.062,0.15,0.046Zm-0.141-.246a0.34,0.34,0,0,1-.106-0.039l-0.036.084,0.016,0.181a0.6,0.6,0,0,1-.2-0.165,0.447,0.447,0,0,1-.2.013,0.629,0.629,0,0,1-.15-0.046,0.4,0.4,0,0,0-.043.127,1.072,1.072,0,0,0,.025.406l-0.066-.01a1.04,1.04,0,0,0-.2-0.01,0.327,0.327,0,0,0-.153-0.314l-0.062-.032-0.068.146,0.168,0.071-0.035.084-0.085-.035-0.136-.133c-0.007.043-.04,0.06-0.1,0.051l-0.084-.035a2.829,2.829,0,0,1,1.575-.58l0.136,0.133A0.154,0.154,0,0,1,502.761,103.935Zm1.317-2.631-0.15-.045,0.014-.088,0.172,0.05Zm1.757,0.12-0.15-.046,0.014-.087,0.171,0.049Zm1.56,2.345a1.046,1.046,0,0,0-.009.2l-0.084-.036-0.115-.13a0.584,0.584,0,0,1-.7.181l-0.151-.047,0.014-.086,0.355,0.032a1.24,1.24,0,0,1,.7-0.179Zm0.119,0.242L507.47,104l0.05-.171,0.168,0.071A0.161,0.161,0,0,1,507.514,104.011Zm0.256-.339-0.234-.082,0.036-.084,0.234,0.082Zm0.787,0.28-0.318-.117,0.068-.146,0.283,0.2Zm0.221,0.168-0.172-.05,0.036-.083,0.146,0.067Zm0.266,0.019-0.168-.071,0.032-.061,0.15,0.046Zm1.016,0.115L510,104.222l0.046-.149,0.084,0.035Zm-1.069-14.779,0.108-.252-0.256-.084A0.479,0.479,0,0,0,508.991,89.475Zm-1.487.593a0.5,0.5,0,0,1-.18.284l-0.036.084,0.088,0.014a0.344,0.344,0,0,0,.4-0.094l0.37,0.215c0.059-.184.265-0.249,0.615-0.193l0.066,0.01-0.082.233-0.134.136a0.078,0.078,0,0,1,.056.076l0,0.022-0.036.084a0.483,0.483,0,0,0-.15-0.046,3.537,3.537,0,0,0-1.356.189l0.436,0.091,0.37,0.215,0.6,0.049,0.084,0.036-0.068.145a1.571,1.571,0,0,0-.238-0.059,0.73,0.73,0,0,0-.179-0.006l0.017,0.181a0.44,0.44,0,0,0,.128.042,1.113,1.113,0,0,0,.408-0.025l-0.016-.182,0.032-.062a0.144,0.144,0,0,1,.175-0.107l0.044,0.007-0.1.229,0.4,0.152-0.015-.471a2.547,2.547,0,0,0-.347-0.077l-0.241-.037-0.062-.033a0.84,0.84,0,0,1,.732-0.086,0.1,0.1,0,0,0,.049.119l0.084,0.036a0.226,0.226,0,0,1,.254-0.184,0.2,0.2,0,0,1,.084.036l0.15,0.046a0.077,0.077,0,0,1-.076.055l-0.022,0,0.017,0.181-0.036.083-0.044-.007a0.739,0.739,0,0,0-.226.009L509.5,91.5a0.13,0.13,0,0,0,.111.151l0.084,0.036,0.044,0.007a0.2,0.2,0,0,0,.184-0.172l0.257,0.085-0.069.146-0.15-.046-0.035.083,0.087,0.014a0.9,0.9,0,0,0,.667-0.1l-0.038-.185,0.132,0.02a1.13,1.13,0,0,0,.223.013l-0.068.146,0.084,0.036,0.066,0.01a0.132,0.132,0,0,0,.152-0.11l0.136,0.133,0.084,0.035,0.066,0.011a0.124,0.124,0,0,0,.13-0.113l0.033-.062-0.381-.149,0.05-.171,0.465,0.185,0.071-.168,0.147,0.067,0.136,0.133a0.1,0.1,0,0,1,.12-0.048l-0.036.084a0.162,0.162,0,0,1-.174.107l-0.044-.007-0.136-.133-0.082.233,0.517,0.282,0.182-.016-0.012-.2,0.032-.062,0.517,0.282,0.072-.167,0.062,0.032-0.01.065a0.245,0.245,0,0,0,.159.271c0.044,0.007.479,0.046,1.308,0.116l0.068-.147-0.253-.106a0.743,0.743,0,0,0,.37-0.21l0.115,0.129,0.182-.016-0.064-.3,0.168,0.071,0.036-.084a1.349,1.349,0,0,0-.474-0.7,0.358,0.358,0,0,0,.04-0.105q0.1-.61-1.085-1.377a1.242,1.242,0,0,0-.27,0l0-.022a0.086,0.086,0,0,0-.052-0.1l-0.172-.049q-0.4-.153-1.372-0.416l-0.046.149,0.234,0.081-0.082.233a0.168,0.168,0,0,1-.1-0.217,0.5,0.5,0,0,0-.15-0.047,1.539,1.539,0,0,0-.475.016,0.807,0.807,0,0,1,.17-0.219l0.036-.084-0.235-.081a0.385,0.385,0,0,0-.316.151l0.3,0.113a0.64,0.64,0,0,0-.264.249,0.366,0.366,0,0,1-.2-0.165q-1.575-.136-1.656.1a0.626,0.626,0,0,1,.2.166,1.22,1.22,0,0,1,.463-0.084l0.022,0,0,0.022a0.086,0.086,0,0,0,.052.1l0.065,0.01a0.239,0.239,0,0,1,.291-0.133,1.057,1.057,0,0,1,.194.053l0.084,0.035-0.566.313-0.136-.133-0.063-.033-0.007.044a0.071,0.071,0,0,0,.034.072,0.457,0.457,0,0,1-.4.116l0.072-.168,0.147,0.067,0.071-.167-0.172-.049-0.022,0a0.2,0.2,0,0,0-.2.1l0.038,0.185-0.066-.01a0.725,0.725,0,0,0-.553.226l0.016,0.182a3.454,3.454,0,0,1-1.021.062Zm0.89,1.19-0.007.043-0.066-.01a1.031,1.031,0,0,0-.179-0.006l-0.172-.049a0.815,0.815,0,0,0,.29-0.267A0.417,0.417,0,0,1,508.394,91.258Zm6.35,0.349,0.168,0.071-0.032.062-0.15-.046Zm-0.971.451,0.172,0.049-0.036.084-0.168-.071Zm-0.283-.2,0.169,0.071-0.032.062-0.172-.049Zm-1.037-.118-0.046.149-0.172-.049A0.188,0.188,0,0,1,512.453,91.739Zm-0.764-.566,0.062,0.032-0.05.171-0.084-.036Zm-0.373-.484,0.168,0.072-0.032.061-0.15-.046Zm-0.132.4,0.15,0.046a0.154,0.154,0,0,1-.152.11l-0.066-.01Zm-0.019.265,0.088,0.014-0.1.229-0.066-.01Zm-0.386-.261a1.044,1.044,0,0,0,.2.009l0.084,0.036-0.13.114-0.234-.082,0.014-.087Zm-0.229-1.667,0.15,0.046-0.036.084-0.147-.068ZM510.1,91.3l-0.05.171-0.084-.035,0.071-.167Zm-0.2-.88,0.084,0.035-0.1.23-0.062-.033Zm-0.388.319a0.945,0.945,0,0,0-.172-0.05,0.152,0.152,0,0,0-.193.081l-0.283-.2,0.014-.087a0.421,0.421,0,0,0,.128.042,0.624,0.624,0,0,0,.321-0.039l0.256,0.085Zm-0.083-.75L509.47,90a0.73,0.73,0,0,0,.227-0.009l-0.05.171-0.066-.01a1.032,1.032,0,0,0-.2-0.01Zm-0.147-.068,0.084,0.035a0.162,0.162,0,0,1-.174.106l-0.044-.007-0.084-.036A0.169,0.169,0,0,1,509.28,89.923Zm-0.488.1a0.142,0.142,0,0,1,.174-0.107l0.044,0.007-0.082.233-0.168-.072Zm-1-.2-0.068.146,0.231,0.1,0.071-.168Zm0.636-.749-0.046.149,0.147,0.068,0.068-.146Zm-3.782,2.869a0.386,0.386,0,0,0-.316.151l0.416,0.066,0-.022A0.2,0.2,0,0,0,504.644,91.943Zm5.605-3.164-0.047.15L510.349,89l0.049-.17Zm-3.489,2.581a0.163,0.163,0,0,0-.108-0.173l-0.068.146,0.169,0.071Zm-0.076-1.509a0.388,0.388,0,0,0-.316.151,0.63,0.63,0,0,1,.2.166l0.37-.21Zm-0.183.731,0.068-.146-0.172-.05-0.046.15Zm-1.541.786,0.15,0.045,0.068-.146-0.044-.007A0.163,0.163,0,0,0,504.96,91.367Zm0.081,0.906a0.2,0.2,0,0,0-.2.1l0.146,0.068,0.072-.168ZM504.8,90.85l0.044,0.007a0.162,0.162,0,0,0,.174-0.107l-0.168-.071ZM504.61,90.6l-0.084-.036-0.049.171,0.234,0.081,0-.022A0.2,0.2,0,0,0,504.61,90.6Zm0.094,1.109a0.2,0.2,0,0,0-.2.1l-0.013.087a0.385,0.385,0,0,0,.316-0.152l-0.084-.035Zm-0.593-.227-0.036.084,0.084,0.036a0.713,0.713,0,0,1,.324-0.061l0.044,0.007,0.046-.15A0.446,0.446,0,0,0,504.111,91.479Zm2.69,0.467,0.068-.146-0.256-.085-0.046.149Zm-46.322,18.06h-0.74L462,115.4h0.6l1.085-2.544,1.077,2.544h0.595l2.269-5.39h-0.749l-1.833,4.6-0.931-2.225,0.939-2.345H464.4l-0.726,1.875-0.718-1.875h-0.649l0.939,2.345-0.924,2.225Zm8.811,5.39h3.682V114.79h-2.994v-1.861h2.543V112.36h-2.543v-1.746H472.9v-0.607H469.29v5.39Zm5.544,0h3.681V114.79h-2.994v-1.861h2.544V112.36h-2.544v-1.746h2.926v-0.607h-3.613v5.39Zm5.543,0h0.688v-1.648l0.939-.972,1.971,2.62h0.748l-2.3-3.015,2.177-2.375H483.86l-2.8,2.983v-2.976h-0.688V115.4Zm9.584-4.783v-0.607h-3.613v5.39h3.682V114.79h-2.994v-1.861h2.543V112.36h-2.543v-1.746h2.925Zm5.826,3.591-3.361-4.2h-0.534v5.39h0.687v-4.115l3.315,4.115h0.581v-5.383h-0.688v4.191Zm5.96,1a2.315,2.315,0,0,0,1.356-1.4,3.2,3.2,0,0,0,.183-1.112,3.276,3.276,0,0,0-.164-1.044,2.406,2.406,0,0,0-.493-0.855,2.362,2.362,0,0,0-.821-0.577,2.873,2.873,0,0,0-1.142-.211h-1.879v5.39h1.879A2.874,2.874,0,0,0,501.747,115.2Zm-2.272-4.589h1.191a2.011,2.011,0,0,1,.817.156,1.728,1.728,0,0,1,.608.429,1.791,1.791,0,0,1,.374.657,2.826,2.826,0,0,1,0,1.669,1.922,1.922,0,0,1-.367.664,1.644,1.644,0,0,1-.6.441,2.047,2.047,0,0,1-.829.16h-1.191v-4.176ZM444.154,70.258c-0.039.056,0,.109,0.082,0.115a0.72,0.72,0,0,1,.3.11c0.1,0.069.147,0.052,0.148-.059a0.082,0.082,0,0,0,0-.016l-0.413-.211A0.16,0.16,0,0,0,444.154,70.258Zm0.748,38.781a0.393,0.393,0,0,1,.071.059V108.76C444.746,108.807,444.711,108.91,444.9,109.039Zm-0.874-9.1a6.715,6.715,0,0,0,.945.406v-0.1c-0.1-.064-0.235-0.147-0.41-0.247s-0.37-.23-0.535-0.311v0.252Zm0.945-31.377V68.215H444.96l-0.288-.022,0.139,0.216A0.642,0.642,0,0,0,444.973,68.562Zm-0.411-.652a0.324,0.324,0,0,0-.138-0.485c-0.195-.157-0.277-0.2-0.4-0.1v0.817C444.37,68.271,444.418,68.222,444.562,67.909Zm0.032,3.367a1.671,1.671,0,0,1,.379.071v-0.3a4.546,4.546,0,0,0-.945-0.2V71.16a2.256,2.256,0,0,0,.566.117h0Zm-0.346-.255c-0.078-.059-0.077-0.1,0-0.091h0a0.12,0.12,0,0,1,.127.1C444.375,71.078,444.318,71.075,444.248,71.021Zm0.725,26.966a1.082,1.082,0,0,0-.782-0.158c-0.138.06,0.262,0.323,0.782,0.564V97.988Zm-0.945,11.44a1.293,1.293,0,0,1,.58-0.019,0,0,0,0,0,0-.008c-0.05-.047-0.041-0.073.026-0.07h0a0.12,0.12,0,0,1,.127.1c0,0.005,0,.008,0,0.011,0.065,0.013.132,0.027,0.2,0.044a0.005,0.005,0,0,0,.007-0.005V109.2s0-.008-0.008,0a2.716,2.716,0,0,1-.873.045,0.463,0.463,0,0,1-.064.062v0.127Zm0.376-36.56a0.555,0.555,0,0,0-.137.017l-0.242.064V73l0.1,0.071A1.176,1.176,0,0,1,444.4,72.868Zm-0.376,39.245,0.949,0.642v-2.574a3.8,3.8,0,0,0-.949.548v1.384Zm0.949-45.054v-1.2a4.059,4.059,0,0,0-.476-0.179,0.209,0.209,0,0,1-.165-0.159h0c-0.023-.111.276-0.146,0.641-0.124V65.062a0.6,0.6,0,0,1-.459-0.178,1.205,1.205,0,0,0-.49-0.133V67a2.819,2.819,0,0,0,.44.029A4.313,4.313,0,0,1,444.977,67.059Zm-0.486-3.4a0.753,0.753,0,0,0-.463.087v0.314C444.473,63.857,444.613,63.741,444.491,63.659Zm0.433,1.149,0.049,0.023V64.461a0.667,0.667,0,0,0-.321.062C444.55,64.589,444.619,64.661,444.924,64.808Zm-0.9,41.163c0.322,0.166.645,0.321,0.945,0.487v-1.486c-0.328-.174-0.642-0.347-0.945-0.509v1.508Zm0,2.7c0.384-.012.723,0.023,0.945,0.034v-0.84a0.29,0.29,0,0,1-.038-0.024c-0.077-.059-0.076-0.095,0-0.09h0a0.22,0.22,0,0,1,.037.006v-0.819l-0.006,0c-0.33-.225-0.645-0.424-0.939-0.588v2.326Zm0.376-.561h0a1,1,0,0,1,.345.235c0.068,0.082-.031.043-0.221-0.086S444.283,108.066,444.4,108.113Zm0.569-43.99V64.006a0.258,0.258,0,0,0-.311.023c-0.069.065-.044,0.117,0.071,0.143A0.266,0.266,0,0,0,444.973,64.123ZM444.028,53v8.86a1.471,1.471,0,0,1,.345-0.077l0.247-.016-0.319.145a2.553,2.553,0,0,0-.273.2v1.383a1.237,1.237,0,0,0,.413.01,0.208,0.208,0,0,1,.22.1,0.656,0.656,0,0,0,.316.144V62.74c-0.362.124-.739,0.1-0.632-0.053a0.125,0.125,0,0,1,.169-0.046,0.936,0.936,0,0,0,.463-0.027V53.943h73.075v68.115H444.977l-0.008-8.99a4.974,4.974,0,0,1-.941-0.75V123H519V53H444.028Zm15.636,21.054V69.87l2.786-2.846,5.474,7.029h1.114l-5.954-7.622,5.666-5.941h-1.133l-7.953,8.233V60.51h-0.979V74.054h0.979Zm11.525-13.563,5.36,8.406v5.157h0.979v-5.12l5.379-8.444h-1.076L477.029,68l-4.764-7.507h-1.076Zm16.616,13.563V60.51h-0.98V74.054h0.98Zm4.014-13.563L497.6,74.054h0.884l5.782-13.563H503.23l-5.187,12.34-5.2-12.34h-1.019Z" transform="translate(-427 -53)"/>
</svg>
