<?xml version="1.0" encoding="UTF-8"?><!DOCTYPE svg PUBLIC "-//W3C//DTD SVG 1.1//EN" "http://www.w3.org/Graphics/SVG/1.1/DTD/svg11.dtd"><svg xmlns="http://www.w3.org/2000/svg"><symbol id="icon-arrow" viewBox="0 0 15.698 8.706">
    <path d="M11.354 0l-.708.706 3.14 3.147H0v1h13.786L10.646 8l.708.706 4.344-4.353z"/>
</symbol><symbol id="icon-download" viewBox="0 0 19 17">
    <path fill-rule="evenodd" d="M14.389 8.93a.507.507 0 0 0 0-.723.499.499 0 0 0-.716 0l-3.666 3.659V.775a.509.509 0 0 0-.506-.513.515.515 0 0 0-.514.513v11.091L5.328 8.207a.507.507 0 0 0-.723 0 .507.507 0 0 0 0 .723l4.534 4.534a.518.518 0 0 0 .723 0l4.527-4.534zm3.593 2.32c0-.282.224-.507.507-.507a.51.51 0 0 1 .513.507v4.975c0 .282-.72.775-1.002.775H1c-.282 0-1.002-.493-1.002-.775V11.25a.51.51 0 0 1 1.02 0L1 16h17l-.018-4.75z"/>
</symbol><symbol id="icon-facebook" viewBox="0 0 10 19">
    <title>
        facebook
    </title>
    <path d="M9.766.157v2.946H8.014c-.64 0-1.071.134-1.295.402-.223.268-.335.67-.335 1.205v2.11h3.27l-.435 3.303H6.384v8.471H2.97v-8.47H.123V6.82H2.97V4.387c0-1.384.387-2.457 1.161-3.22C4.904.404 5.934.023 7.222.023c1.093 0 1.941.045 2.544.134z" fill-rule="evenodd"/>
</symbol><symbol id="icon-globe" viewBox="0 0 23 24">
    <path fill-rule="evenodd" d="M22.475 3.933l-.49.489.49.491a.378.378 0 1 1-.536.535l-.49-.49-.49.49a.378.378 0 0 1-.536 0 .376.376 0 0 1 0-.535l.49-.491-.49-.489a.379.379 0 0 1 .536-.536l.49.49.49-.49a.379.379 0 0 1 .536.536zm-10.04 19.422a.404.404 0 0 1-.152.006 10.694 10.694 0 0 1-.628 0 .42.42 0 0 1-.155-.006c-5.216-.247-9.383-4.566-9.383-9.84 0-4.65 3.241-8.558 7.585-9.586a1.896 1.896 0 0 1 1.133-1.621V1.013a.38.38 0 0 1 .379-.379h1.516c.21 0 .379.17.379.379v1.295c.636.278 1.09.895 1.134 1.621 4.343 1.028 7.585 4.935 7.585 9.586 0 5.277-4.173 9.598-9.393 9.84zm8.626-9.461h-4.165c-.038 1.559-.307 3.027-.789 4.368.98.3 1.881.716 2.7 1.248a9.05 9.05 0 0 0 2.254-5.616zm-2.787 6.174a9.926 9.926 0 0 0-2.443-1.106 11.291 11.291 0 0 1-2.369 3.524 9.083 9.083 0 0 0 4.812-2.418zm-5.923 2.419a10.475 10.475 0 0 0 2.738-3.72c-.849-.193-1.759-.3-2.738-.322v4.042zm0-4.799c1.071.024 2.079.148 3.022.373.466-1.275.726-2.676.764-4.167h-3.786v3.794zm0-4.551h3.786c-.038-1.492-.297-2.893-.762-4.168-.943.226-1.953.35-3.024.374v3.794zm0-4.552c.98-.022 1.891-.128 2.741-.322a10.454 10.454 0 0 0-2.741-3.726v4.048zm-.758 13.909v-4.049c-.979.022-1.89.129-2.74.322a10.458 10.458 0 0 0 2.74 3.727zM8.572 8.97c-.466 1.275-.727 2.676-.764 4.167h3.785V9.343a14.393 14.393 0 0 1-3.021-.373zm3.021-.385V4.544a10.481 10.481 0 0 0-2.737 3.72c.849.193 1.759.3 2.737.321zm-3.785 5.309c.037 1.492.297 2.893.762 4.168.943-.226 1.952-.35 3.023-.374v-3.794H7.808zm2.665 8.59a11.275 11.275 0 0 1-2.362-3.521 9.94 9.94 0 0 0-2.44 1.105 9.075 9.075 0 0 0 4.802 2.416zM5.138 19.51a10.633 10.633 0 0 1 2.697-1.248c-.481-1.34-.749-2.808-.786-4.368H2.883a9.057 9.057 0 0 0 2.255 5.616zm0-11.988a9.05 9.05 0 0 0-2.255 5.615h4.166c.037-1.559.306-3.026.789-4.368a10.67 10.67 0 0 1-2.7-1.247zm.533-.558c.75.472 1.562.84 2.443 1.105a11.311 11.311 0 0 1 2.368-3.524 9.071 9.071 0 0 0-4.811 2.419zm6.68-5.573h-.758v.758h.758v-.758zm0 1.516h-.758a1.14 1.14 0 0 0-1.072.757h2.903a1.14 1.14 0 0 0-1.073-.757zm1.12 1.639a11.294 11.294 0 0 1 2.363 3.522 9.916 9.916 0 0 0 2.44-1.104 9.081 9.081 0 0 0-4.803-2.418zm5.336 2.976c-.818.531-1.719.947-2.698 1.247.481 1.341.749 2.808.786 4.368h4.166a9.043 9.043 0 0 0-2.254-5.615zM4.012 2.907c-.627 0-1.137.51-1.137 1.137a.378.378 0 0 1-.379.378.378.378 0 0 1-.379-.378c0-.627-.51-1.137-1.137-1.137a.379.379 0 1 1 0-.758c.627 0 1.137-.51 1.137-1.136a.379.379 0 1 1 .758 0c0 .626.51 1.136 1.137 1.136a.379.379 0 1 1 0 .758zm-1.516-.759a1.927 1.927 0 0 1-.38.38c.144.108.272.237.38.38.108-.143.236-.272.38-.38a1.927 1.927 0 0 1-.38-.38zm.379 19.703h.379v-.379c0-.209.169-.378.379-.378s.379.169.379.378v.379h.379a.378.378 0 1 1 0 .758h-.379v.378a.379.379 0 1 1-.758 0v-.378h-.379a.379.379 0 1 1 0-.758zm18.195-.758a.38.38 0 1 1 0 .759.38.38 0 0 1 0-.759z"/>
</symbol><symbol id="icon-key" viewBox="0 0 22 21">
    <path fill-rule="evenodd" d="M19.16 10.735a6.275 6.275 0 0 1-6.951 1.325l-1.298 1.297v2.258a.475.475 0 0 1-.476.475h-1.98v1.98a.475.475 0 0 1-.475.475H6v1.98a.474.474 0 0 1-.476.474l-5.049-.006H.468.467a.472.472 0 0 1-.466-.461v-.001-.013l.005-2.603c0-.125.05-.246.139-.335l8.793-8.789a6.28 6.28 0 0 1 1.325-6.949A6.253 6.253 0 0 1 14.711.001c1.681 0 3.261.654 4.449 1.841a6.293 6.293 0 0 1 0 8.893zm-.672-8.221A5.309 5.309 0 0 0 14.711.951a5.308 5.308 0 0 0-3.776 1.563 5.333 5.333 0 0 0-1.001 6.165.474.474 0 0 1-.088.548l-8.89 8.887-.003 1.255 2.264-2.262a.474.474 0 1 1 .672.672l-2.267 2.266 3.427.004V18.07c0-.263.213-.475.475-.475h1.981v-1.98c0-.262.213-.475.475-.475h1.98v-1.979c0-.126.05-.247.139-.336l1.673-1.672a.475.475 0 0 1 .549-.089 5.334 5.334 0 0 0 6.167-1.001 5.303 5.303 0 0 0 1.564-3.774 5.305 5.305 0 0 0-1.564-3.775zm-2.493 4.724a2.23 2.23 0 0 1-1.58-3.811 2.238 2.238 0 0 1 3.159 0 2.235 2.235 0 0 1 0 3.158 2.227 2.227 0 0 1-1.579.653zm.907-3.139c-.5-.5-1.314-.5-1.815 0-.5.5-.5 1.314 0 1.814a1.283 1.283 0 1 0 1.815-1.814zM5.233 16.435a.477.477 0 0 1-.672 0 .474.474 0 0 1 0-.672l5.702-5.7a.476.476 0 0 1 .672.672l-5.702 5.7z"/>
</symbol><symbol id="icon-lunch" viewBox="0 0 21 17">
    <path fill-rule="evenodd" d="M19 17H2C.914 17-.004 15.915-.004 14.818c0-.863 1.162-1.543 2.004-1.818.257-3.216.93-6.353 3.697-8.093a9.186 9.186 0 0 1 3.032-1.173A1.983 1.983 0 0 1 10.5.89a1.983 1.983 0 0 1 1.771 2.844 9.19 9.19 0 0 1 3.032 1.175c2.547 1.562 3.547 4.191 3.828 8.003.492.255 1.823 1.039 1.874 1.906C21.069 15.913 20.086 17 19 17zM10.5 2.217a.662.662 0 0 0-.021 1.323h.042a.663.663 0 0 0-.021-1.323zm4.118 3.822a7.827 7.827 0 0 0-4.084-1.173c-.012.001-.022.004-.034.004-.012 0-.022-.004-.034-.003A7.826 7.826 0 0 0 6.381 6.04C4.016 7.499 3.004 10.233 3 13h15c-.004-2.767-1.016-5.501-3.382-6.961zM19 14H2c-.361 0-1 .635-1 1s.639 1 1 1h17c.361 0 1-.635 1-1s-.639-1-1-1zm-8.5-7.804a6.55 6.55 0 0 1 4.889 2.206.67.67 0 0 1-.05.937.652.652 0 0 1-.927-.05A5.236 5.236 0 0 0 10.5 7.523a.66.66 0 0 1-.656-.663.66.66 0 0 1 .656-.664z"/>
</symbol></svg>